<svg xmlns="http://www.w3.org/2000/svg" width="24" height="24" viewBox="0 0 24 24"><rect width="24" height="24" fill="none"/><path d="M4.953,14.3,3.047,13.7C4.651,8.644,7.673,6,12,6s7.349,2.644,8.953,7.7l-1.906.605C17.688,10.022,15.377,8,12,8S6.312,10.022,4.953,14.3ZM12,8a1,1,0,1,0-1-1A1,1,0,0,0,12,8Z" fill="#f34e4e" opacity="0.3"/><path d="M5.732,6H9.171a3,3,0,0,1,5.659,0h3.438a2,2,0,1,1,0,2H14.829A3,3,0,0,1,9.171,8H5.732a2,2,0,1,1,0-2ZM12,8a1,1,0,1,0-1-1A1,1,0,0,0,12,8ZM4,19a3,3,0,1,1,3-3A3,3,0,0,1,4,19Zm0-2a1,1,0,1,0-1-1A1,1,0,0,0,4,17Zm16,2a3,3,0,1,1,3-3A3,3,0,0,1,20,19Zm0-2a1,1,0,1,0-1-1A1,1,0,0,0,20,17Z" fill="#f34e4e" fill-rule="evenodd"/></svg>