<svg xmlns="http://www.w3.org/2000/svg" width="24" height="24" viewBox="0 0 24 24"><rect width="24" height="24" fill="none"/><path d="M2.561,10.682,4.682,8.561a1.5,1.5,0,0,1,2.121,0l2.121,2.121a1.5,1.5,0,0,1,0,2.121L6.8,14.925a1.5,1.5,0,0,1-2.121,0L2.561,12.8A1.5,1.5,0,0,1,2.561,10.682Zm12,0,2.121-2.121a1.5,1.5,0,0,1,2.121,0l2.121,2.121a1.5,1.5,0,0,1,0,2.121L18.8,14.925a1.5,1.5,0,0,1-2.121,0L14.561,12.8A1.5,1.5,0,0,1,14.561,10.682Z" fill="#425bbe" fill-rule="evenodd" opacity="0.3"/><path d="M8.561,16.682l2.121-2.121a1.5,1.5,0,0,1,2.121,0l2.121,2.121a1.5,1.5,0,0,1,0,2.121L12.8,20.925a1.5,1.5,0,0,1-2.121,0L8.561,18.8A1.5,1.5,0,0,1,8.561,16.682Zm0-12,2.121-2.121a1.5,1.5,0,0,1,2.121,0l2.121,2.121a1.5,1.5,0,0,1,0,2.121L12.8,8.925a1.5,1.5,0,0,1-2.121,0L8.561,6.8A1.5,1.5,0,0,1,8.561,4.682Z" fill="#526fe8" fill-rule="evenodd"/></svg>