<svg xmlns="http://www.w3.org/2000/svg" width="24" height="24" viewBox="0 0 24 24"><rect width="24" height="24" fill="none"/><path d="M16,15.632V12a3,3,0,0,0-3-3H6.162V5.526A2.526,2.526,0,0,1,8.688,3H20.478A2.526,2.526,0,0,1,23,5.526v7.579l.017,4.682a.5.5,0,0,1-.853.355l-2.511-2.51Z" fill="#2e9c57" fill-rule="evenodd"/><path d="M1.985,18V13a2,2,0,0,1,2-2h8a2,2,0,0,1,2,2v5a2,2,0,0,1-2,2H4.1L2.857,21.191a.5.5,0,0,1-.846-.361v-2.5A2.015,2.015,0,0,1,1.985,18ZM6.5,14a.5.5,0,0,0,0,1h5a.5.5,0,0,0,0-1Zm3,2a.5.5,0,0,0,0,1h2a.5.5,0,0,0,0-1Z" fill="#00ab28" fill-rule="evenodd" opacity="0.3"/></svg>