<svg xmlns="http://www.w3.org/2000/svg" width="139" height="35" viewBox="0 0 139 35"><g fill="#1A2234" fill-rule="evenodd"><path d="M38.8559973 4.7614759L.202839827 30.1396386C.202839827 30.1396386 6.52083235 28.1328313 16.8036674 23.7230422 21.5172489 21.7031627 26.045674 21.3831024 27.7636753 24.4437048 30.1395018 28.6728012 26.6564819 33.1774699 21.8580198 34.9481325 30.049004 33.5780723 36.297927 26.3735542 36.297927 17.684488 36.297927 14.9776807 35.686703 12.4174096 34.6030182 10.1316566 37.7219666 6.8789759 38.8559973 4.7614759 38.8559973 4.7614759M40.2115914 4.00771084C40.9056157 5.08722892 41.4338314 6.22641566 41.8097612 7.39533133 41.8958901 6.9839759 42.4940076 4.09879518 42.4944237 4.09774096 44.8733708 2.52527108 45.5661468.465963855 45.5661468.465963855 45.5661468.465963855 43.4276949.279789157 41.0487478 1.85246988 41.0304402 1.86427711 38.2031651 1.24945783 37.7943648 1.1598494 38.6997586 1.97918675 39.5148626 2.9288253 40.2115914 4.00771084M10.2476761 17.0873795C15.5206794 16.1860241 27.4751227 8.56762048 32.5413334 6.80391566 29.3784884 2.77237952 24.5045074.181536145 19.0284562.181536145 15.0309513.181536145 11.306604 1.49930723 8.42898301 3.87087349 4.65574614 6.97954819 3.48801286 11.6221084 4.45061787 14.4330723 5.0283473 16.1236145 6.43865621 17.7386747 10.2476761 17.0873795"/><g transform="translate(56.727 12.353)"><path d="M.290369175 9.86296561L.290369175 8.709952C.290369175 8.45257778.493823644 8.25121692.750078146 8.25121692L5.01802418 8.25121692C5.32420988 8.25121692 5.56382077 7.99872587 5.56382077 7.68390204L5.56382077 6.63314876 1.13747318 5.17134351C.662555559 5.01249537.290369175 4.50004486.290369175 3.9990843L.290369175 2.62661321C.290369175 1.41471376 1.22298703.571928056 2.56165226.571928056L6.97738244.571928056 6.97738244 1.7240799C6.97738244 1.98030513 6.77622377 2.18482573 6.5196822 2.18482573L2.56165226 2.18482573C2.28531046 2.18482573 1.98371635 2.33534373 1.98371635 2.67027492L1.98371635 3.79370197 6.40862898 5.25206021C6.86546839 5.40458893 7.22129786 5.92536961 7.22129786 6.43580936L7.22129786 7.67356111C7.22129786 8.91935583 6.27461889 9.86296561 5.01802418 9.86296561L.290369175 9.86296561M14.9126684 4.64625411C15.2257411 4.64625411 15.4808478 4.39405034 15.4808478 4.07893927L15.4808478 2.75127887C15.4808478 2.43702953 15.2257411 2.18482573 14.9126684 2.18482573L12.0255706 2.18482573 12.0255706 4.64625411 14.9126684 4.64625411 14.9126684 4.64625411 14.9126684 4.64625411zM10.323328 9.86296561L10.323328 1.5494331C10.323328 1.0088323 10.7629497.571928056 11.3024334.571928056L14.9126684.571928056C16.1646719.571928056 17.1850994 1.59022233 17.1850994 2.84405997L17.1850994 3.9870199C17.1850994 5.24315551 16.1646719 6.26116254 14.9126684 6.26116254L12.3871396 6.26116254C12.2620252 6.26116254 12.1409283 6.24134241 12.0255706 6.20342568L12.0255706 9.40423049C12.0255706 9.65471079 11.8166644 9.86296561 11.5675837 9.86296561L10.323328 9.86296561 10.323328 9.86296561 10.323328 9.86296561zM24.9886711 5.87136697L23.7039542 2.18482573 23.423882 2.18482573 22.1426084 5.87136697 24.9886711 5.87136697 24.9886711 5.87136697 24.9886711 5.87136697zM26.7511752 9.86296561C26.5152947 9.86296561 26.3106927 9.70842615 26.2464137 9.48810693L25.5525463 7.48713713 21.5821769 7.48713713 20.8831441 9.50476732C20.8237434 9.70670268 20.6090981 9.86296561 20.3826871 9.86296561L19.0001169 9.86296561 21.9580937 1.42476744C22.1449041.914902216 22.6307263.571928056 23.1641838.571928056L24.5358491.571928056C24.7106076.571928056 24.8727396.667581647 24.9516531.819248625L28.1334584 9.86296561 26.7511752 9.86296561 26.7511752 9.86296561 26.7511752 9.86296561zM32.9276875 9.86296561C31.6705186 9.86296561 30.6538219 8.84380961 30.6538219 7.58968467L30.6538219 2.84405997C30.6538219 1.59022233 31.6705186.571928056 32.9276875.571928056L37.0409623.571928056 37.0409623 1.7240799C37.0409623 1.97427295 36.8306212 2.18482573 36.5841233 2.18482573L32.9276875 2.18482573C32.6126064 2.18482573 32.3572123 2.43702953 32.3572123 2.75127887L32.3572123 7.68390204C32.3572123 7.99499165 32.6126064 8.25121692 32.9276875 8.25121692L36.5841233 8.25121692C36.8306212 8.25121692 37.0409623 8.46062071 37.0409623 8.709952L37.0409623 9.86296561 32.9276875 9.86296561M42.6030948 9.86296561C41.3482218 9.86296561 40.3320988 8.84380961 40.3320988 7.58968467L40.3320988 2.84405997C40.3320988 1.59022233 41.3482218.571928056 42.6030948.571928056L46.7993011.571928056 46.7993011 1.7240799C46.7993011 1.97427295 46.5863774 2.18482573 46.3390183 2.18482573L42.6030948 2.18482573C42.2885875 2.18482573 42.0352026 2.43702953 42.0352026 2.75127887L42.0352026 4.43196708C42.1181336 4.41731744 42.2033607 4.40324229 42.2908833 4.40324229L46.3952624 4.40324229 46.3952624 5.55797937C46.3952624 5.80731066 46.1843472 6.01786347 45.938423 6.01786347L42.0352026 6.01786347 42.0352026 7.68390204C42.0352026 7.99499165 42.2885875 8.25121692 42.6030948 8.25121692L46.3390183 8.25121692C46.5863774 8.25121692 46.7993011 8.46062071 46.7993011 8.709952L46.7993011 9.86296561 42.6030948 9.86296561M49.9024791 9.86296561L49.9024791 8.709952C49.9024791 8.45257778 50.1065074 8.25121692 50.3639098 8.25121692L54.6278383 8.25121692C54.9354586 8.25121692 55.1730608 7.99872587 55.1730608 7.68390204L55.1730608 6.63314876 50.7492961 5.17134351C50.2735176 5.01249537 49.9024791 4.50004486 49.9024791 3.9990843L49.9024791 2.62661321C49.9024791 1.41471376 50.835097.571928056 52.1723273.571928056L56.5900662.571928056 56.5900662 1.7240799C56.5900662 1.98030513 56.3877596 2.18482573 56.1309313 2.18482573L52.1723273 2.18482573C51.8916813 2.18482573 51.5952522 2.33534373 51.5952522 2.67027492L51.5952522 3.79370197 56.0190169 5.25206021C56.4813084 5.40861039 56.8322599 5.9170394 56.8322599 6.43580936L56.8322599 7.67356111C56.8322599 8.91935583 55.8873026 9.86296561 54.6278383 9.86296561L49.9024791 9.86296561M65.6198149 9.86296561C65.3692995 9.86296561 65.1595322 9.65471079 65.1595322 9.40423049L65.1595322 6.01786347 61.6353848 6.01786347 61.6353848 9.40423049C61.6353848 9.65471079 61.4250436 9.86296561 61.175102 9.86296561L59.933716 9.86296561 59.933716.571928056 61.175102.571928056C61.4250436.571928056 61.6353848.780182873 61.6353848 1.03066317L61.6353848 4.40324229 65.1595322 4.40324229 65.1595322 1.03066317C65.1595322.780182873 65.3692995.571928056 65.6198149.571928056L66.8629226.571928056 66.8629226 9.86296561 65.6198149 9.86296561M70.424088 9.86296561C70.1758681 9.86296561 69.9638053 9.65471079 69.9638053 9.40423049L69.9638053.571928056 71.2092088.571928056C71.4597242.571928056 71.6712132.780182873 71.6712132 1.03066317L71.6712132 9.86296561 70.424088 9.86296561M79.3622967 4.64625411C79.6768044 4.64625411 79.9313372 4.39405034 79.9313372 4.07893927L79.9313372 2.75127887C79.9313372 2.43702953 79.6768044 2.18482573 79.3622967 2.18482573L76.477208 2.18482573 76.477208 4.64625411 79.3622967 4.64625411 79.3622967 4.64625411 79.3622967 4.64625411zM74.7755392 9.86296561L74.7755392 1.5494331C74.7755392 1.0088323 75.2137259.571928056 75.7534963.571928056L79.3622967.571928056C80.6151614.571928056 81.6373102 1.59022233 81.6373102 2.84405997L81.6373102 3.9870199C81.6373102 5.24315551 80.6151614 6.26116254 79.3622967 6.26116254L76.8353329 6.26116254C76.7130884 6.26116254 76.5896958 6.24134241 76.477208 6.20342568L76.477208 9.40423049C76.477208 9.65471079 76.2662927 9.86296561 76.0157773 9.86296561L74.7755392 9.86296561 74.7755392 9.86296561 74.7755392 9.86296561z"/></g></g></svg>