<svg xmlns="http://www.w3.org/2000/svg" width="103" height="35" viewBox="0 0 103 35"><g fill-rule="evenodd"><path fill-rule="nonzero" d="M21.5744034,16.0235294 C22.0413911,15.4825863 22.2797333,14.7797151 22.2386364,14.0647059 C19.2100852,14.1441176 16.0235227,14.3294118 12.7403977,14.5794118 C15.622642,9.83529412 18.5253693,5.46176471 21.006733,2.15882353 C21.867017,2.12941176 22.7643655,2.11470588 23.6987784,2.11470588 C28.3805966,2.11470588 34.3996591,2.40882353 38.0631818,2.85882353 C38.581756,2.31678676 38.8980691,1.61129478 38.9585795,0.861764706 C33.8920709,0.298967721 28.7990463,0.0112948631 23.7017045,5.68434189e-14 C11.1193182,4.10263327e-14 3.76008523,2.46764706 3.76008523,6.26764706 C3.76008523,7.44411765 4.44480114,8.18823529 5.6328125,8.38529412 C5.53642125,8.10800592 5.48408484,7.81718728 5.47772727,7.52352941 C5.47772727,5 9.74110795,2.9 18.326392,2.29411765 C15.8655114,5.57058824 12.9481534,10 10.0425,14.7970588 L7.87423295,15 C7.42620169,15.5217533 7.18917806,16.1934485 7.21,16.8823529 L8.88082386,16.7529412 C5.60647727,22.2588235 2.42284091,28.1235294 0,33.2058824 C0.351136364,33.9676471 1.12948864,34.4382353 1.85224432,34.7117647 C4.36286932,29.2705882 7.90056818,22.7029412 11.5553125,16.55 C15.2393182,16.3029412 18.9291761,16.1088235 21.5744034,16.0235294 Z"/><path fill-rule="nonzero" d="M56.734858,19.0205882 C53.94625,24.6088235 50.6719034,29.5617647 48.6850568,29.5617647 C48.216875,29.5617647 47.8072159,29.2852941 47.8072159,28.4647059 C47.8072159,26.9176471 49.1327557,24.0352941 51.9798864,19.7647059 C51.442222,19.3503135 50.8013509,19.092851 50.127642,19.0205882 C46.6982102,24.1147059 44.632358,29.5617647 42.0983239,29.5617647 C41.3960511,29.5617647 40.7727841,29.2088235 40.7727841,28.0117647 C40.7727841,26.0735294 42.2153693,23.5676471 44.6703977,19.7764706 C44.2102326,19.3697333 43.6395774,19.1105943 43.0317614,19.0323529 C42.433943,19.8634094 41.8829642,20.7275113 41.3814205,21.6205882 C41.264375,20.4205882 40.7523011,19.0735294 38.5694034,19.0735294 C35.1984943,19.0735294 32.7171307,22.4411765 31.5934943,24.5176471 C30.3059943,26.9294118 27.9270455,29.5735294 25.8611932,29.5735294 C24.655625,29.5735294 23.7777841,28.6705882 23.7777841,26.2617647 C23.7777841,26.1617647 23.7777841,26.0617647 23.7777841,25.9676471 C31.6637216,18.2352941 36.6001136,10.9264706 36.6001136,7.35294118 C36.6001136,5.70882353 35.5291477,4.72941176 34.1655682,4.72941176 C29.2291761,4.72941176 22.2152273,17.5382353 21.7031534,25.4823529 C20.0440341,27.1029412 18.2678693,28.7029412 16.3863636,30.2470588 C16.523892,30.8941176 17.1296023,31.2647059 17.6943466,31.4794118 C19.1164489,30.2764706 20.4829545,29.0676471 21.7909375,27.8588235 C22.2269318,30.5411765 23.8889773,31.4794118 25.5949148,31.4794118 C27.5671307,31.4794118 29.3491477,30.2 30.7653977,28.3794118 C30.8502557,30.0823529 31.8919602,31.5 33.7207955,31.5 C35.5496307,31.5 37.4340625,30.0470588 38.6952273,28.2941176 C38.8210511,30.1705882 39.9710227,31.4794118 41.6213636,31.4794118 C43.2717045,31.4794118 44.7055114,30.2147059 45.7179545,28.7794118 C45.7852557,30.0617647 46.5197159,31.4794118 48.2051705,31.4794118 C50.0486364,31.4794118 51.8774716,29.7588235 53.4722159,27.3029412 C52.999482,28.4267218 52.599714,29.5801201 52.2754261,30.7558824 C52.7624303,31.229235 53.4121854,31.4957398 54.0896307,31.5 C54.9469886,28.0911765 57.0713636,22.8205882 58.5900284,19.7647059 C58.0303266,19.3887788 57.3982807,19.1352622 56.734858,19.0205882 Z M33.8729545,6.73823529 C34.2826136,6.73823529 34.5547443,6.99411765 34.5547443,7.62058824 C34.5547443,10.0147059 30.534233,16.3235294 24.1991477,22.9764706 C25.7851136,16.0411765 31.4237784,6.73823529 33.8729545,6.73823529 Z M34.1655682,29.5617647 C33.2292045,29.5617647 32.8400284,28.8176471 32.8400284,27.8764706 C32.8400284,25.1911765 35.9183239,20.8617647 38.452358,20.8617647 C39.3887216,20.8617647 39.9154261,21.4911765 39.9154261,22.45 C39.9154261,24.9176471 36.3865057,29.5617647 34.1655682,29.5617647 Z"/><path fill-rule="nonzero" d="M102.806875,19.4735294 C102.251132,19.1918275 101.635464,19.0504953 101.013153,19.0617647 C99.1521307,19.0617647 97.033608,20.1117647 95.3247443,21.9235294 C95.7208165,21.2274237 96.071709,20.5063125 96.3752273,19.7647059 C95.9021692,19.3803148 95.3390343,19.1241334 94.739517,19.0205882 C92.5741761,23.5264706 86.8067614,29.5617647 83.5704545,29.5617647 C82.5755682,29.5617647 81.9523011,28.9941176 81.9523011,28.1705882 C81.9523011,26.7588235 84.0005966,25.2294118 87.1959375,23.9764706 C87.1764383,23.4833766 86.9988687,23.0098311 86.6897159,22.6264706 C85.2471307,23.1558824 82.2244318,24.4117647 82.2244318,22.7235294 C82.2244318,21.1764706 84.697017,19.8647059 87.699233,19.8647059 C88.2870757,19.8636934 88.8740956,19.9089296 89.4549148,20 C89.4924287,19.7932731 89.5120098,19.5836621 89.5134375,19.3735294 C89.5079102,19.0411189 89.4546914,18.7112493 89.3554261,18.3941176 C88.7105416,18.2938846 88.0591588,18.2417814 87.4066193,18.2382353 C82.9267045,18.2352941 80.1761364,20.9617647 80.1761364,22.9794118 C80.1761364,24.3647059 81.4402273,24.8676471 82.6223864,24.8911765 C80.383892,26.2323529 78.4350852,29.5617647 76.199517,29.5617647 C75.4182386,29.5617647 74.9910227,29.15 74.9910227,28.2882353 C74.9910227,26.2294118 77.4548295,20.8147059 80.275625,15.2882353 C86.1103409,15.4470588 91.3569034,15.6882353 95.6115057,16.0235294 C96.0805809,15.5797339 96.3229323,14.9452991 96.2698864,14.3 C91.9801705,13.9588235 86.8243182,13.7117647 81.1417614,13.5647059 C82.3122159,11.3176471 83.5031534,9.10588235 84.5770455,7.15 C84.0619475,6.73514196 83.4395839,6.47695711 82.7833239,6.40588235 C81.8879261,7.98529412 80.5009375,10.5970588 79.0115341,13.5117647 C70.5667045,13.3147059 61.1006534,13.2911765 51.6580114,13.3794118 C51.1693466,13.9882353 50.9557386,14.4970588 51.0727841,15.1029412 C60.4071591,15.0058824 69.8000568,15.0411765 78.1336932,15.2352941 C77.0042045,17.4647059 75.8600852,19.7794118 74.8505682,21.8823529 C72.4716193,26.8382353 69.8410227,29.5617647 68.1467898,29.5617647 C67.6405682,29.5617647 67.2309091,29.3264706 67.2309091,28.6588235 C67.2309091,26.7205882 70.6018182,23.4088235 70.6018182,21.0970588 C70.6018182,20.0205882 69.9375852,19.0617647 68.4774432,19.0617647 C67.0173011,19.0617647 64.6266477,20.1647059 62.0048295,23.9294118 C62.636875,22.4088235 63.21625,20.7970588 63.3332955,19.7647059 C62.81493,19.3172874 62.1634249,19.0555528 61.4810511,19.0205882 C61.0421307,21.4705882 58.7012216,27.8176471 57.3756818,30.8823529 C57.951836,31.2115963 58.5893597,31.417854 59.2484091,31.4882353 C62.1335795,25.0176471 66.1482386,20.85 67.8805114,20.85 C68.0449334,20.8286414 68.21026,20.8821537 68.331386,20.9959374 C68.452512,21.1097211 68.5167977,21.2719028 68.5067045,21.4382353 C68.5067045,22.85 65.1328693,26.4147059 65.1328693,29.0411765 C65.1328693,30.4882353 66.1277557,31.4676471 67.6873864,31.4676471 C69.6830114,31.4676471 71.5440341,29.8029412 72.8900568,27.9205882 C72.8900568,28.05 72.8725,28.1823529 72.8725,28.3147059 C72.8725,29.7852941 73.5542898,31.4676471 75.7752273,31.4676471 C77.5601705,31.4676471 78.8769318,30.45 79.95375,29.2382353 C80.1966193,30.5676471 81.3875568,31.4676471 82.9676705,31.4676471 C85.6655682,31.4676471 89.0862216,28.8529412 91.5968466,25.9941176 L89.2559375,30.7441176 C89.6275568,31.1941176 90.3269034,31.3911765 91.0116193,31.4882353 C93.1564773,25.9 96.626875,20.9882353 100.583011,20.9882353 C101.329055,20.9881886 102.064,21.1698418 102.724943,21.5176471 C103.002721,20.8698845 103.03191,20.1416533 102.806875,19.4735294 Z"/></g></svg>