<svg xmlns="http://www.w3.org/2000/svg" width="153" height="35" viewBox="0 0 153 35"><g fill="#2C3238" fill-rule="evenodd"><g fill-rule="nonzero" transform="translate(37 6.333)"><path d="M3.56666667 14.9C3.56666667 17.5666667 4.96666667 18.9333333 7.8 18.9333333 10.6333333 18.9333333 12.0333333 17.6 12.0333333 14.9L12.0333333.833333333 15.4.833333333 15.4 14.8333333C15.4 17.2666667 14.7666667 19.0333333 13.4666667 20.1666667 12.2 21.3 10.3 21.8333333 7.76666667 21.8333333 5.23333333 21.8333333 3.33333333 21.2666667 2.06666667 20.1666667.8 19.0333333.166666667 17.2666667.166666667 14.8333333L.166666667.833333333 3.53333333.833333333 3.53333333 14.9 3.56666667 14.9zM19.5 28L19.5 6.4 22.7666667 6.4 22.7666667 7.33333333C24.1666667 6.5 25.4666667 6.06666667 26.6666667 6.06666667 28.6666667 6.06666667 30.1333333 6.66666667 31.0333333 7.9 31.9666667 9.13333333 32.4333333 11.1666667 32.4333333 14.0333333 32.4333333 16.9 31.9 18.9333333 30.8333333 20.1 29.7666667 21.2666667 28.0333333 21.8666667 25.6666667 21.8666667 24.8333333 21.8666667 23.9 21.7666667 22.8 21.6L22.8 28 19.5 28zM26.0666667 9C25.1333333 9 24.1666667 9.2 23.2333333 9.63333333L22.7666667 9.83333333 22.7666667 18.7333333C23.5666667 18.9 24.4666667 18.9666667 25.4333333 18.9666667 26.8 18.9666667 27.7333333 18.5666667 28.2666667 17.8 28.8 17 29.0666667 15.6666667 29.0666667 13.7666667 29.0666667 10.6 28.0666667 9 26.0666667 9zM44.5333333 13.6L44.5333333 10.6333333 50.4333333 10.6333333 50.4333333 21.1333333C49.9 21.2666667 48.8 21.4333333 47.1333333 21.6 45.4666667 21.7666667 44.2666667 21.8333333 43.5333333 21.8333333 40.4 21.8333333 38.2333333 20.9666667 37.0333333 19.2333333 35.8333333 17.5 35.2666667 14.8 35.2666667 11.1 35.2666667 7.4 35.8666667 4.7 37.1 3.03333333 38.3333333 1.33333333 40.4333333.5 43.4333333.5 45.2.5 47.2.7 49.4 1.1L50.4666667 1.3 50.3333333 3.96666667C47.9 3.63333333 45.7 3.5 43.7666667 3.5 41.8333333 3.5 40.5 4.03333333 39.8 5.13333333 39.1 6.23333333 38.7333333 8.23333333 38.7333333 11.1666667 38.7333333 14.1 39.0666667 16.1333333 39.7333333 17.2666667 40.4 18.4 41.7666667 18.9333333 43.8333333 18.9333333 45.3 18.9333333 46.4 18.8333333 47.1333333 18.6666667L47.1333333 13.6 44.5333333 13.6zM63.3666667 6.4L66.6333333 6.4 66.6333333 21.5 63.3666667 21.5 63.3666667 20.5666667C61.9 21.4 60.5333333 21.8333333 59.3 21.8333333 57.2333333 21.8333333 55.8333333 21.2666667 55.1333333 20.1666667 54.4333333 19.0333333 54.0666667 17.1 54.0666667 14.3L54.0666667 6.4 57.3666667 6.4 57.3666667 14.3333333C57.3666667 16.1333333 57.5333333 17.3666667 57.8333333 18 58.1333333 18.6333333 58.8333333 18.9333333 59.9333333 18.9333333 61.0333333 18.9333333 62.0333333 18.7333333 62.9333333 18.3333333L63.4 18.1666667 63.4 6.4 63.3666667 6.4zM81.8 11.0666667L81.8 17.9666667C81.8333333 18.4 81.9333333 18.7333333 82.1333333 18.9333333 82.3333333 19.1333333 82.6666667 19.2666667 83.1 19.3333333L83 21.8333333C81.2666667 21.8333333 79.9333333 21.4666667 78.9666667 20.7 77.3666667 21.4333333 75.7333333 21.8333333 74.1 21.8333333 71.1 21.8333333 69.6 20.2333333 69.6 17.0333333 69.6 15.5 70 14.4 70.8333333 13.7 71.6333333 13 72.9 12.6 74.6 12.4666667L78.5 12.1333333 78.5 11.0333333C78.5 10.2333333 78.3333333 9.66666667 77.9666667 9.33333333 77.6 9 77.1 8.83333333 76.4 8.83333333 75.1 8.83333333 73.5 8.9 71.5666667 9.06666667L70.6 9.13333333 70.4666667 6.8C72.6666667 6.26666667 74.6666667 6 76.5333333 6 78.3666667 6 79.7 6.4 80.5333333 7.2 81.4 8.06666667 81.8 9.33333333 81.8 11.0666667zM75.0333333 14.8C73.6333333 14.9333333 72.9333333 15.6666667 72.9333333 17.0666667 72.9333333 18.4666667 73.5333333 19.1666667 74.7666667 19.1666667 75.7666667 19.1666667 76.8333333 19 77.9666667 18.7L78.5 18.5333333 78.5 14.4666667 75.0333333 14.8zM85.9333333 21.5L85.9333333 6.4 89.2 6.4 89.2 8.2C90.9 7.1 92.6333333 6.36666667 94.3333333 6.06666667L94.3333333 9.36666667C92.6 9.7 91.1333333 10.1666667 89.9 10.7L89.2333333 10.9666667 89.2333333 21.5 85.9333333 21.5zM109 .133333333L109 21.5 105.733333 21.5 105.733333 20.7C104.266667 21.4333333 102.9 21.8333333 101.7 21.8333333 99.7333333 21.8333333 98.2666667 21.2333333 97.3666667 20.0666667 96.4666667 18.8666667 96 16.9 96 14.1 96 11.3 96.5 9.26666667 97.5333333 8 98.5333333 6.73333333 100.133333 6.1 102.3 6.1 103.033333 6.1 104.166667 6.23333333 105.733333 6.5L105.733333.166666667 109 .166666667 109 .133333333zM105.2 18.3666667L105.7 18.1666667 105.7 9.2C104.5 9 103.366667 8.9 102.333333 8.9 100.3 8.9 99.2666667 10.6 99.2666667 13.9666667 99.2666667 15.8333333 99.5 17.1 99.9666667 17.8333333 100.433333 18.5333333 101.2 18.9 102.233333 18.9 103.266667 18.9 104.266667 18.7333333 105.2 18.3666667z"/></g><path fill-rule="nonzero" d="M28.1333333,17.0666667 C27.2,19.1 26.1333333,20.9666667 25.1666667,22.5666667 C24.1666667,24.3 23.2,25.8666667 21.9666667,27.6 C21.5,28.2666667 20.9666667,29 20.3666667,29.7666667 C18.8333333,31.6666667 16.5,33.4 13.9333333,32.7 C11.3333333,31.9666667 9.93333333,29.6 8.46666667,27.5333333 C6.2,24.4 4.06666667,20.9666667 2.33333333,17.1666667 C0.666666667,13.5 -0.866666667,8.86666667 1.5,5.13333333 C2.13333333,4.13333333 2.96666667,3.33333333 3.9,2.66666667 C4.53333333,2.23333333 5.23333333,1.9 5.93333333,1.6 C10.8,-0.4 16.8666667,-0.333333333 21.9,0.833333333 C23.4666667,1.2 24.9333333,1.73333333 26.2333333,2.53333333 C27.1,3.06666667 27.8666667,3.76666667 28.5,4.6 C29.4666667,5.86666667 29.9333333,7.2 30.0666667,8.56666667 C30.4333333,11.4 29.3666667,14.4 28.1333333,17.0666667 Z"/><g fill-rule="nonzero" transform="translate(147.333 6.333)"><polygon points=".267 .5 .267 0 2.267 0 2.267 .5 1.533 .5 1.533 2.733 1 2.733 1 .5"/><polygon points="2.633 2.733 2.633 0 3.567 0 4.033 2 4.5 0 5.433 0 5.433 2.733 4.867 2.733 4.867 .633 4.8 .633 4.267 2.633 3.7 2.633 3.167 .633 3.1 .633 3.1 2.733"/></g></g></svg>