<svg xmlns="http://www.w3.org/2000/svg" width="102" height="35" viewBox="0 0 102 35"><g fill="#45B8EA" fill-rule="evenodd"><path d="M2.91944882.0858096591C3.17966929.0858096591 3.43878543.0858096591 3.70000984.0858096591 8.87510433 1.21147727 15.9590846 1.34153409 22.3917106 1.24399148 23.3346083 1.22877841 24.3517972 1.04393466 25.1530394 1.18492898 26.248937 1.3759375 26.361378 3.03973011 26.2335768 4.33443182 26.0782677 5.89352273 24.5628248 6.10252841 23.023689 6.29681818 20.9758583 6.55375 18.5818701 6.54768466 16.4817343 6.65129261 15.7776732 8.78838068 15.1387677 10.9881108 14.4719528 13.1605966 15.4738819 13.260625 16.4963917 13.1014347 17.5622717 13.1014347 19.1032146 13.1014347 21.0836811 12.8587216 20.9231516 14.5878409 20.8641201 15.2296733 20.5158543 15.8175142 20.1437953 16.4607386 19.7849882 17.0746307 19.3802008 17.673608 18.9116634 17.9155256 18.2152323 18.2760653 17.0390197 18.1820028 16.0013504 18.1820028 14.9273386 18.1820028 13.9340433 18.234304 13.0317047 18.3034091 12.2419075 20.9429261 11.1958051 23.8263494 9.30990945 25.4347585 8.68546063 25.9683097 7.81906299 26.5428267 6.78972638 26.5632102 5.5573937 26.5860795 4.43710039 25.9865057 4.05911811 25.0473722 3.77891929 24.3490625 4.0880315 23.4745597 4.26944291 22.7596449 4.73105315 20.946804 5.27036811 19.3053835 5.79934252 17.6476562 4.79209252 17.1649148 3.88694291 16.6214205 3.30897638 15.6276989 2.90649803 14.9326705 2.37892913 12.6615483 3.34039961 12.1787074 3.93513189 11.8830966 4.77833858 12.3772727 5.35078346 12.5674858 6.08164961 12.8094034 6.72015354 12.9246449 7.3598622 13.0720028 7.49529331 12.7617756 7.60020472 12.417642 7.72047638 12.0916051 5.30259449 11.7232102 3.04343504 10.9569886 2.46787795 8.7322017 2.29931693 8.08350852 2.18326181 6.73024148 2.76936024 6.41583807 3.30897638 6.12549716 3.93724016 6.54390625 4.35959646 6.74088068 5.78026772 7.40568182 7.56325984 7.68240057 9.34303937 7.78242898 9.56330315 7.43759943 9.6996378 7.00696023 9.87924213 6.62275568 6.01287992 6.51427557 1.90236024 5.40232955 1.98940157 1.42346591 2.00476181.750511364 2.33606102.157798295 2.91944882.0858096591M40.1848878.886931818C40.8699744.820213068 41.6742283.968664773 42.0155669 1.51215909 42.5696398 2.39103693 42.2266949 4.22505682 41.8954961 5.13694602 41.4866929 6.26957386 40.8276083 7.19120739 40.0944331 7.63308239 39.4685787 8.010625 38.3604331 8.04940341 37.784876 7.54458807 36.6712087 6.56051136 37.4258681 4.12502841 37.9048465 3.02740057 38.3529035 2.00036932 38.9840787 1.00446023 40.1848878.886931818M32.2338071 22.3428267C32.0607283 23.0582386 31.5763287 23.4857955 31.1539724 23.8892898 29.9844862 25.0026278 27.7903819 26.3258665 25.3934823 25.7013352 24.0698917 25.3559091 23.1079193 24.3839631 22.6318524 23.2040057 22.1110098 21.9099006 22.2890079 20.1944034 22.601935 18.6885085 23.4540768 14.5946023 24.7911201 10.4346733 26.2626909 6.65129261 27.2447421 4.12741477 28.2221752 1.70117898 31.333878 1.33268466 32.0319154 1.24995739 32.8170945 1.39383523 33.1042205 1.89676136 33.4828051 2.55897727 33.0227008 3.59833807 32.7451122 4.24573864 32.4337913 4.97397727 32.1138366 5.68958807 31.875 6.38680398 31.6041378 7.16774148 31.4454154 7.97045455 31.183187 8.70267045 30.9129272 9.46680398 30.6535098 10.2087642 30.4332461 10.9319318 29.9675197 12.4690483 29.4786024 14.0595597 29.2627559 15.7445312 29.1579449 16.5835369 29.0715059 17.5278409 28.9628799 18.4510653 28.8534508 19.3822443 28.8742323 20.3402699 29.2339429 21.0358949 29.7266752 21.9866619 30.7620354 22.295696 32.2338071 22.3428267M65.9588622 8.37603693C66.7494626 8.62978693 67.9610138 8.4834233 68.2987382 9.11799716 68.5402854 9.57130682 68.3493366 10.3870455 68.179872 10.8418466 67.6447736 12.2826136 66.4137461 13.0571875 64.6105748 13.0437642 64.3095945 13.7940767 64.0425472 14.9630966 63.8894469 16.2204119 63.6265157 18.4027415 63.1348878 20.9541619 64.7002264 21.8984659 65.2408465 22.2246023 66.0674882 22.2493608 66.9194291 22.3428267 66.8216457 22.911875 66.3998917 23.3257102 66.0502205 23.6819744 65.0617441 24.6789773 63.5084528 25.7264915 61.6693406 25.8490909 58.5840413 26.0583949 56.9585669 23.8830256 56.9585669 21.0079545 56.9585669 19.554858 57.3604429 18.231321 57.6773858 16.963267 58.0010551 15.6828835 58.3437992 14.4489347 58.6677697 13.2203551 58.2396909 13.1370312 57.8579941 13.1157528 57.6175512 12.8936222 56.8401024 12.1781108 57.5389429 10.6097727 57.9783661 10.0109943 58.5826358 9.18551136 59.3110925 8.62083807 60.289128 8.43649148 61.5084094 5.40600852 62.2922835 1.68208807 66.0192992 1.33268466 66.9453307 1.24757102 67.8408425 1.47646307 67.9396299 2.37264205 68.0016732 2.93870739 67.7383406 3.5172017 67.5499016 3.97727273 66.9992421 5.33491477 66.2958839 6.84548295 65.9588622 8.37603693M78.8896713 6.62275568C77.051563 7.20850852 75.3029055 7.68478693 73.8205925 8.58295455 72.3503268 9.47724432 71.2900689 10.7476847 70.2210768 11.9438494 70.6039783 8.73607955 73.0177441 6.52183239 76.311561 6.29681818 77.2856811 6.23009943 78.1600098 6.365625 78.8896713 6.62275568M49.7873445 9.95103693C50.9323346 9.00285511 53.4827362 7.74007102 55.3076929 8.91107955 55.8559429 9.261875 56.3730709 9.72890625 56.3869252 10.6037074 56.4144331 12.1053267 55.5098858 13.6389631 55.0087205 14.7355966 54.1321831 14.2876562 52.8688287 13.9927415 51.8873799 14.528679 51.6870945 14.6385511 51.5178307 14.764233 51.3762756 14.8857386 49.2993307 16.6464773 48.4850374 20.2727557 47.806878 23.6207244 47.7135118 24.0868608 47.6729528 24.7145739 47.4763819 25.0473722 47.286437 25.3694318 46.6786535 25.7264915 46.186624 25.9683097 45.0078012 26.5495881 43.5563091 26.4209233 42.9759331 25.4641903 42.3819035 24.4839915 42.4379232 22.4208807 42.6163228 20.8275852 42.9692067 17.673608 43.7090079 14.9119886 44.5967894 12.3295455 45.1026732 10.8539773 45.7664764 9.24457386 47.0566358 8.64271307 48.2925827 8.06759943 49.7086358 8.60184659 49.7873445 9.95103693M101.965866 9.29776989C101.965866 9.49474432 101.965866 9.69430398 101.965866 9.89276989 101.335394 12.5314915 100.269213 14.9593182 99.1749213 17.2914915 96.9993898 21.9242188 94.6802953 26.3422727 90.9829961 29.5361222 89.6705492 30.6695455 88.1777953 31.8973295 86.2124882 32.4469886 85.5790039 32.6248722 84.4463622 32.8342756 84.1126535 32.3893182 83.9273268 32.1415341 83.9879646 31.5456392 84.0828366 31.1105256 84.672248 28.409858 86.8477795 27.3327131 89.0319449 26.4139631 87.7531299 24.1444318 86.4344587 21.9388352 85.4334331 18.9250568 85.000937 17.6287642 84.592435 16.0097159 84.592435 14.2010511 84.592435 12.4754119 84.7960335 10.6650568 85.7036929 9.71299716 86.3505295 9.03536932 87.9389587 8.34640625 89.2709823 8.4943608 90.8252776 8.6671733 90.9280807 10.4845881 91.1319803 12.060483 91.2906024 13.2719602 91.3892894 14.4961648 91.5249213 15.5677415 91.8231909 17.9578835 92.2237618 20.064446 92.6936043 22.1941761 93.8530512 19.6092472 95.2194094 16.3583239 96.1430315 13.3680114 96.4803543 12.285696 96.7654724 11.2472301 97.3447441 10.4558523 97.7714173 9.8768608 98.3717717 9.3781108 99.0845669 9.00136364 99.8686417 8.58295455 101.741988 8.1046875 101.965866 9.29776989M38.9547638 8.76322443C40.3946102 8.58146307 41.0903386 9.51065341 41.4453307 10.5747727 41.6895886 11.3025142 41.718502 12.0191193 41.6854724 13.0720028 41.6337697 14.7089489 41.2706457 16.5986506 40.9648465 17.9751847 40.6410768 19.4358381 40.2620906 20.9025568 39.7654429 22.4024858 39.3178878 23.7563494 38.8279665 25.7736222 37.6952244 26.2357812 36.8112579 26.5989062 35.8384429 26.2964347 35.2660984 25.7302699 33.2823189 23.783892 33.922128 19.4964915 34.6652421 16.5485369 35.2799528 14.1109659 35.8423583 12.3015057 36.9741969 10.4558523 37.4724508 9.64806818 37.9116732 8.89367898 38.9547638 8.76322443M76.6711713 12.9526847C76.9423346 12.417642 77.4938976 11.3466619 78.0221693 11.0820739 78.3182303 10.9305398 78.5141988 11.2353977 78.5607815 11.5859943 78.6957106 12.5880682 78.4619941 13.6685938 78.2912244 14.4966619 77.7740965 17.0050284 76.5664606 19.4820739 74.7817618 20.5000568 74.5583858 17.6248864 75.6052913 15.0518892 76.6711713 12.9526847zM82.0438406 20.3234659C81.3418878 20.8389205 80.6286909 21.2610085 79.7308701 21.5990767 78.5710217 22.0404545 75.2307224 22.8696165 74.9309469 21.1269744 76.0046575 21.5856534 77.1443268 21.011733 77.9631378 20.5294886 79.7940177 19.454929 81.4912736 17.7264062 82.4318622 16.0174716 83.1054035 14.7864063 83.7375827 13.0148295 83.3304862 11.1699716 82.9846299 9.59546875 81.9871181 8.44802557 80.1806339 8.316875 77.7740965 8.14316761 76.0529469 9.11799716 74.6309705 10.0723437 72.1299626 11.7422017 70.4591102 14.0183949 69.2897244 17.023821 68.7476988 18.4200426 68.1273661 20.3234659 68.3911004 22.1941761 68.626122 23.87 69.6691122 25.1494886 71.0003327 25.7302699 72.5836417 26.4239062 74.7105827 26.1819886 76.1905866 25.6422727 78.3924213 24.8396591 80.2538209 23.4488068 81.6518031 21.8689347 82.1320866 21.3246449 82.6861594 20.802429 82.7939823 19.9073437 82.4685059 19.8787074 82.2620965 20.1605966 82.0438406 20.3234659zM1.11336614 31.8699858C1.11336614 32.4308807 1.34878937 32.4385369 1.4806063 32.4385369 1.69474606 32.4385369 2.00476181 32.218892 2.09371063 31.7957102L2.44659449 30.1432528C2.44659449 30.057642 2.38274409 29.8666335 2.14561417 29.8666335 1.51795276 29.8666335 1.11336614 31.1824148 1.11336614 31.8699858zM3.65714173 29.4521023L3.12585827 31.9352131C3.10397244 32.0298722 3.09604134 32.1026562 3.09604134 32.1695739 3.09604134 32.3735085 3.19262008 32.4834801 3.39912992 32.4834801 3.68695866 32.4834801 3.88603937 32.1602273 3.99627165 31.7957102L4.30528346 31.7957102C3.88603937 32.9865057 3.22153346 33.1471875 2.82447638 33.1471875 2.41215945 33.1471875 2.14561417 32.913125 2.09973425 32.4755256 1.87304528 32.8116051 1.52498031 33.1471875 1.00142717 33.1471875.500161417 33.1471875.0216850394 32.8402415.0216850394 31.9707102.0216850394 30.9839489.632480315 29.4158097 1.91762008 29.4158097 2.33606102 29.4158097 2.51375787 29.5754972 2.51375787 29.7876847L2.51375787 29.8385937 2.59477559 29.4521023 3.65714173 29.4521023z"/><path d="M5.85516142,30.0863778 C5.58821457,30.0863778 5.38973622,30.3936222 5.28040748,30.7572443 L4.77763583,33.1033381 L3.71446654,33.1033381 L4.49834055,29.4521023 L5.559,29.4521023 L5.4777815,29.8311364 C5.78870079,29.4808381 6.11387598,29.4210795 6.34036417,29.4210795 C6.8133189,29.4210795 7.15947638,29.6635937 7.15947638,30.2464631 C7.15947638,30.8390767 6.80588976,31.7230256 6.80588976,32.1315909 C6.80588976,32.3140483 6.87937795,32.4385369 7.10024409,32.4385369 C7.42491732,32.4385369 7.55944488,32.1756392 7.72047638,31.7957102 L8.03029134,31.7957102 C7.61747244,32.9933665 7.04994685,33.1471875 6.65811024,33.1471875 C6.01589173,33.1471875 5.78870079,32.738125 5.78870079,32.319517 C5.78870079,31.8253409 6.11929724,30.926179 6.11929724,30.4586506 C6.11929724,30.2177273 6.03185433,30.0863778 5.85516142,30.0863778"/><path d="M8.70001772,34.3599574 C8.85592913,34.3599574 9.03212008,34.1403125 9.12920079,33.7096733 L9.1720689,33.4982812 C8.79649606,33.6377841 8.44963583,33.8265057 8.44963583,34.1205256 C8.44963583,34.2220455 8.53978937,34.3599574 8.70001772,34.3599574 Z M11.1061535,29.4521023 L10.3745846,32.8402415 C10.8254528,32.6796591 11.0978209,32.4308807 11.3034272,31.7957102 L11.6142461,31.7957102 C11.3272205,32.7612926 10.767124,33.0382102 10.3095295,33.1624006 L10.1969882,33.6860085 C9.97812992,34.7329261 9.35799803,34.93 8.86998425,34.93 C8.42052165,34.93 8.04384449,34.6965341 8.04384449,34.2220455 C8.04384449,33.6058665 8.69459646,33.3019034 9.24796654,33.1322727 L9.3361122,32.738125 C9.02438976,33.0820597 8.70001772,33.1471875 8.44963583,33.1471875 C8.00740157,33.1471875 7.66134449,32.8848864 7.66134449,32.2710937 C7.66134449,32.1315909 7.68363189,31.9707102 7.72047638,31.7957102 L8.22234449,29.4521023 L9.28481102,29.4521023 L8.75362795,31.9352131 C8.73826772,31.992983 8.72973425,32.0588068 8.72973425,32.1170739 C8.72973425,32.2855114 8.78244094,32.4385369 8.95170472,32.4385369 C9.22417323,32.4385369 9.41622638,32.1839915 9.52665945,31.8389631 L10.0429843,29.4521023 L11.1061535,29.4521023 Z"/><path d="M13.1188465,28.2975994 L12.8677618,29.4521023 L13.3117028,29.4521023 L13.2520689,29.7438352 L12.809935,29.7438352 L12.3373819,31.9352131 C12.3153957,32.0298722 12.3076654,32.1026562 12.3076654,32.1695739 C12.3076654,32.3735085 12.4049469,32.4385369 12.6099508,32.4385369 C12.896876,32.4385369 13.1632205,32.1602273 13.2726496,31.7957102 L13.5849744,31.7957102 C13.1632205,32.9865057 12.4339606,33.1471875 12.0344941,33.1471875 C11.5927618,33.1471875 11.2456004,32.8848864 11.2456004,32.2710937 C11.2456004,32.1315909 11.2668839,31.9707102 11.3034272,31.7957102 L11.746565,29.7438352 L11.503311,29.7438352 L11.5616398,29.4521023 L11.8056969,29.4521023 L12.0269646,28.4422727 L13.1188465,28.2975994"/><path d="M15.1250138,30.0863778 C14.8369843,30.0863778 14.6075846,30.5314347 14.5649173,30.728608 L14.0550177,33.1033381 L12.9940571,33.1033381 L14.0640531,28.1355256 L15.1548307,27.9890625 L14.7559665,29.8311364 C15.0658819,29.4808381 15.3910571,29.4210795 15.6198543,29.4210795 C16.0909016,29.4210795 16.4360551,29.6635938 16.4360551,30.2464631 C16.4360551,30.8390767 16.0830709,31.7230256 16.0830709,32.1315909 C16.0830709,32.3140483 16.1589685,32.4385369 16.3778268,32.4385369 C16.7022992,32.4385369 16.8369272,32.1756392 16.9982598,31.7957102 L17.3091791,31.7957102 C16.8952559,32.9933665 16.3272283,33.1471875 15.9360945,33.1471875 C15.2945787,33.1471875 15.0658819,32.738125 15.0658819,32.319517 C15.0658819,31.8253409 15.3978839,30.926179 15.3978839,30.4586506 C15.3978839,30.2177273 15.3100394,30.0863778 15.1250138,30.0863778"/><path d="M18.2306929,27.895 C18.554563,27.895 18.8197028,28.1579972 18.8197028,28.4787642 C18.8197028,28.8015199 18.554563,29.0561648 18.2306929,29.0561648 C17.9055177,29.0561648 17.6474055,28.8015199 17.6474055,28.4787642 C17.6474055,28.1579972 17.9055177,27.895 18.2306929,27.895 Z M18.5619921,29.4521023 L18.0308091,31.9352131 C18.0079193,32.0298722 18.0009921,32.1026562 18.0009921,32.1695739 C18.0009921,32.3735085 18.0973701,32.4385369 18.302374,32.4385369 C18.5909055,32.4385369 18.8559449,32.1602273 18.9674823,31.7957102 L19.2777992,31.7957102 C18.8559449,32.9865057 18.1262835,33.1471875 17.7284232,33.1471875 C17.2845827,33.1471875 16.9379232,32.8848864 16.9379232,32.2710937 C16.9379232,32.1315909 16.9618169,31.9707102 16.9982598,31.7957102 L17.4989232,29.4521023 L18.5619921,29.4521023 Z"/><path d="M20.8266732,30.0863778 C20.5610315,30.0863778 20.3627539,30.3936222 20.2512165,30.7572443 L19.7488465,33.1033381 L18.6857776,33.1033381 L19.468748,29.4521023 L20.5312146,29.4521023 L20.4501969,29.8311364 C20.7600118,29.4808381 21.085187,29.4210795 21.3126791,29.4210795 C21.7861358,29.4210795 22.1323937,29.6635937 22.1323937,30.2464631 C22.1323937,30.8390767 21.7777028,31.7230256 21.7777028,32.1315909 C21.7777028,32.3140483 21.8522953,32.4385369 22.0717559,32.4385369 C22.3971319,32.4385369 22.5302539,32.1756392 22.6924902,31.7957102 L23.0024055,31.7957102 C22.5899882,32.9933665 22.022061,33.1471875 21.630124,33.1471875 C20.9888091,33.1471875 20.7600118,32.738125 20.7600118,32.319517 C20.7600118,31.8253409 21.0914114,30.926179 21.0914114,30.4586506 C21.0914114,30.2177273 21.0027638,30.0863778 20.8266732,30.0863778"/><path d="M23.6874921 31.8699858C23.6874921 32.4308807 23.924622 32.4385369 24.0553346 32.4385369 24.2560217 32.4385369 24.5653346 32.2643324 24.6463524 31.8903693L25.0228287 30.1236648C25.008372 30.0281108 24.941811 29.8666335 24.7214469 29.8666335 24.0937854 29.8666335 23.6874921 31.1824148 23.6874921 31.8699858zM23.8207146 34.2798153C23.9752205 34.2798153 24.1613504 34.1403125 24.2560217 33.7096733L24.3449705 33.2784375C23.8795453 33.4322585 23.5259587 33.6461364 23.5259587 34.0376989 23.5259587 34.1403125 23.6598839 34.2798153 23.8207146 34.2798153zM25.1635807 29.4521023L26.2320709 29.4521023 25.3322421 33.6860085C25.1109744 34.7329261 24.477189 34.93 23.9911831 34.93 23.5411181 34.93 23.1211713 34.6155966 23.1211713 34.1403125 23.1211713 33.4618892 23.6967283 33.2488068 24.3961713 33.0456676L24.4618287 32.738125C24.2484921 32.9646307 23.9622697 33.1471875 23.5772598 33.1471875 23.0760945 33.1471875 22.5960118 32.8402415 22.5960118 31.9707102 22.5960118 30.9839489 23.2074094 29.4158097 24.4917461 29.4158097 24.9109902 29.4158097 25.0895906 29.5754972 25.0895906 29.7991193L25.1635807 29.4521023zM28.8265453 31.8699858C28.8265453 32.4308807 29.0632736 32.4385369 29.1970984 32.4385369 29.4105354 32.4385369 29.7213543 32.218892 29.8084961 31.7957102L30.1621831 30.1432528C30.1621831 30.057642 30.0964252 29.8666335 29.8596969 29.8666335 29.232437 29.8666335 28.8265453 31.1824148 28.8265453 31.8699858zM31.3728307 29.4521023L30.8410453 31.9352131C30.8187579 32.0298722 30.8117303 32.1026562 30.8117303 32.1695739 30.8117303 32.3735085 30.9084094 32.4834801 31.115622 32.4834801 31.4020453 32.4834801 31.6002224 32.1602273 31.712563 31.7957102L32.021876 31.7957102C31.6002224 32.9865057 30.9380256 33.1471875 30.5380571 33.1471875 30.1268445 33.1471875 29.8596969 32.913125 29.8169291 32.4755256 29.5881319 32.8116051 29.2408701 33.1471875 28.7165138 33.1471875 28.2142441 33.1471875 27.7352657 32.8402415 27.7352657 31.9707102 27.7352657 30.9839489 28.3474665 29.4158097 29.631 29.4158097 30.0535571 29.4158097 30.2294469 29.5754972 30.2294469 29.7876847L30.2294469 29.8385937 30.3099626 29.4521023 31.3728307 29.4521023z"/><path d="M33.570248,30.0863778 C33.3048071,30.0863778 33.105626,30.3936222 32.9947913,30.7572443 L32.4925217,33.1033381 L31.4310591,33.1033381 L32.2147323,29.4521023 L33.2762953,29.4521023 L33.194374,29.8311364 C33.5050925,29.4808381 33.8294646,29.4210795 34.0577598,29.4210795 C34.5290079,29.4210795 34.8764705,29.6635937 34.8764705,30.2464631 C34.8764705,30.8390767 34.5214783,31.7230256 34.5214783,32.1315909 C34.5214783,32.3140483 34.5964724,32.4385369 34.8177402,32.4385369 C35.1406063,32.4385369 35.2744311,32.1756392 35.435061,31.7957102 L35.7474862,31.7957102 C35.3350689,32.9933665 34.7647323,33.1471875 34.3746024,33.1471875 C33.7339902,33.1471875 33.5050925,32.738125 33.5050925,32.319517 C33.5050925,31.8253409 33.835689,30.926179 33.835689,30.4586506 C33.835689,30.2177273 33.7477441,30.0863778 33.570248,30.0863778"/><path d="M36.4165098,34.3599574 C36.573124,34.3599574 36.749315,34.1403125 36.8456929,33.7096733 L36.889565,33.4982812 C36.5128878,33.6377841 36.1662283,33.8265057 36.1662283,34.1205256 C36.1662283,34.2220455 36.2556791,34.3599574 36.4165098,34.3599574 Z M38.8234488,29.4521023 L38.090876,32.8402415 C38.5418445,32.6796591 38.8136102,32.4308807 39.0208228,31.7957102 L39.3315413,31.7957102 C39.0423071,32.7612926 38.4822106,33.0382102 38.026122,33.1624006 L37.9141831,33.6860085 C37.6937185,34.7329261 37.0730846,34.93 36.5870787,34.93 C36.1370138,34.93 35.760437,34.6965341 35.760437,34.2220455 C35.760437,33.6058665 36.4100846,33.3019034 36.9637559,33.1322727 L37.0516004,32.738125 C36.7417854,33.0820597 36.4165098,33.1471875 36.1662283,33.1471875 C35.7245965,33.1471875 35.3762303,32.8848864 35.3762303,32.2710937 C35.3762303,32.1315909 35.4008268,31.9707102 35.435061,31.7957102 L35.9374311,29.4521023 L36.9993957,29.4521023 L36.468313,31.9352131 C36.4537559,31.992983 36.4469291,32.0588068 36.4469291,32.1170739 C36.4469291,32.2855114 36.497628,32.4385369 36.669,32.4385369 C36.9398622,32.4385369 37.1312126,32.1839915 37.242248,31.8389631 L37.7609823,29.4521023 L38.8234488,29.4521023 Z"/><path d="M40.8339331,28.2975994 L40.5828484,29.4521023 L41.0270906,29.4521023 L40.9669547,29.7438352 L40.5247205,29.7438352 L40.0525689,31.9352131 C40.0310846,32.0298722 40.0234547,32.1026562 40.0234547,32.1695739 C40.0234547,32.3735085 40.1184272,32.4385369 40.3255394,32.4385369 C40.6139705,32.4385369 40.8773031,32.1602273 40.9900453,31.7957102 L41.2984547,31.7957102 C40.8773031,32.9865057 40.1489469,33.1471875 39.751187,33.1471875 C39.3078484,33.1471875 38.961189,32.8848864 38.961189,32.2710937 C38.961189,32.1315909 38.9824724,31.9707102 39.0194173,31.7957102 L39.4631575,29.7438352 L39.2199035,29.7438352 L39.2786339,29.4521023 L39.5213858,29.4521023 L39.7416496,28.4422727 L40.8339331,28.2975994"/><path d="M42.2227795,27.895 C42.5465492,27.895 42.8121909,28.1579972 42.8121909,28.4787642 C42.8121909,28.8015199 42.5465492,29.0561648 42.2227795,29.0561648 C41.8984075,29.0561648 41.6397933,28.8015199 41.6397933,28.4787642 C41.6397933,28.1579972 41.8984075,27.895 42.2227795,27.895 Z M42.5543799,29.4521023 L42.0224941,31.9352131 C42.0003071,32.0298722 41.9924764,32.1026562 41.9924764,32.1695739 C41.9924764,32.3735085 42.0883524,32.4385369 42.295063,32.4385369 C42.5828917,32.4385369 42.8491358,32.1602273 42.9593681,31.7957102 L43.2683799,31.7957102 C42.8491358,32.9865057 42.1183701,33.1471875 41.720811,33.1471875 C41.277874,33.1471875 40.9310138,32.8848864 40.9310138,32.2710937 C40.9310138,32.1315909 40.9533012,31.9707102 40.9900453,31.7957102 L41.4919134,29.4521023 L42.5543799,29.4521023 Z"/><path d="M46.6380945,30.0863778 C46.3732559,30.0863778 46.1741752,30.3936222 46.0641437,30.7572443 L45.561874,33.1033381 L44.4998091,33.1033381 L45.0380197,30.5829403 C45.054685,30.5253693 45.0625157,30.466108 45.0625157,30.4001847 C45.0625157,30.2409943 45.000372,30.0798153 44.8395413,30.0798153 C44.5528169,30.0798153 44.3527323,30.3936222 44.2428012,30.7572443 L43.7406319,33.1033381 L42.6789685,33.1033381 L43.4598307,29.4521023 L44.5226988,29.4521023 L44.4415807,29.8311364 C44.7502913,29.4808381 45.0822933,29.4158097 45.3415098,29.4158097 C45.7328445,29.4158097 46.0198701,29.5901136 46.1009882,30.0433239 C46.4561811,29.502017 46.8532382,29.4210795 47.1262087,29.4210795 C47.5991634,29.4210795 47.9455217,29.6635937 47.9455217,30.2464631 C47.9455217,30.8390767 47.5918346,31.7230256 47.5918346,32.1315909 C47.5918346,32.3140483 47.6643189,32.4385369 47.8862894,32.4385369 C48.2094567,32.4385369 48.3417756,32.1756392 48.5041122,31.7957102 L48.816437,31.7957102 C48.4016102,32.9933665 47.8333819,33.1471875 47.4440551,33.1471875 C46.8002303,33.1471875 46.5730394,32.738125 46.5730394,32.319517 C46.5730394,31.8253409 46.9038366,30.926179 46.9038366,30.4586506 C46.9038366,30.2177273 46.8162933,30.0863778 46.6380945,30.0863778"/><path d="M50.4510472 29.772571C50.0821004 29.772571 49.7146594 30.5829403 49.5594508 31.2773722 50.132498 31.2478409 50.6361732 30.6843608 50.6361732 30.0720597 50.6361732 29.889304 50.5911969 29.772571 50.4510472 29.772571zM49.9504843 32.454446C50.2299803 32.454446 50.5826634 32.2710937 50.8213996 32.0671591 50.6653878 32.8992045 50.132498 33.1471875 49.5450945 33.1471875 48.8591043 33.1471875 48.4016102 32.8116051 48.4016102 31.9859233 48.4016102 31.1460227 48.8819941 29.3846875 50.3921161 29.3846875 51.0487913 29.3846875 51.204 29.7211648 51.204 30.0863778 51.204 30.9331392 50.3921161 31.5765625 49.5081496 31.6291619 49.5003189 31.7017472 49.4933917 31.7814915 49.4933917 31.8465199 49.4933917 32.3080824 49.6908661 32.454446 49.9504843 32.454446zM53.7992776 31.8699858C53.7992776 32.4308807 54.0355039 32.4385369 54.1700315 32.4385369 54.382565 32.4385369 54.690874 32.218892 54.7818307 31.7957102L55.134815 30.1432528C55.134815 30.057642 55.0673504 29.8666335 54.8326299 29.8666335 54.206374 29.8666335 53.7992776 31.1824148 53.7992776 31.8699858zM56.3441575 29.4521023L55.8129744 31.9352131C55.7921929 32.0298722 55.7835591 32.1026562 55.7835591 32.1695739 55.7835591 32.3735085 55.8795354 32.4834801 56.0861457 32.4834801 56.3739744 32.4834801 56.5728543 32.1602273 56.6829862 31.7957102L56.9948091 31.7957102C56.5728543 32.9865057 55.9100551 33.1471875 55.510689 33.1471875 55.0980709 33.1471875 54.8326299 32.913125 54.78675 32.4755256 54.5594587 32.8116051 54.2117953 33.1471875 53.6898484 33.1471875 53.1886831 33.1471875 52.7066929 32.8402415 52.7066929 31.9707102 52.7066929 30.9839489 53.3202992 29.4158097 54.6037323 29.4158097 55.0239803 29.4158097 55.2021791 29.5754972 55.2021791 29.7876847L55.2021791 29.8385937 55.2815906 29.4521023 56.3441575 29.4521023z"/><path d="M58.5436831,30.0863778 C58.2765354,30.0863778 58.0775551,30.3936222 57.9668209,30.7572443 L57.4644508,33.1033381 L56.4027874,33.1033381 L57.1853563,29.4521023 L58.2473209,29.4521023 L58.1656004,29.8311364 C58.4762185,29.4808381 58.8014941,29.4210795 59.029689,29.4210795 C59.5013386,29.4210795 59.8483996,29.6635937 59.8483996,30.2464631 C59.8483996,30.8390767 59.4935079,31.7230256 59.4935079,32.1315909 C59.4935079,32.3140483 59.5693051,32.4385369 59.7881634,32.4385369 C60.113439,32.4385369 60.2464606,32.1756392 60.4079941,31.7957102 L60.7190138,31.7957102 C60.3061949,32.9933665 59.7362598,33.1471875 59.3466319,33.1471875 C58.7044134,33.1471875 58.4762185,32.738125 58.4762185,32.319517 C58.4762185,31.8253409 58.8079193,30.926179 58.8079193,30.4586506 C58.8079193,30.2177273 58.7189705,30.0863778 58.5436831,30.0863778"/><path d="M61.3889409,34.3599574 C61.5436476,34.3599574 61.7223484,34.1403125 61.8172205,33.7096733 L61.8603898,33.4982812 C61.4854193,33.6377841 61.1387598,33.8265057 61.1387598,34.1205256 C61.1387598,34.2220455 61.2268051,34.3599574 61.3889409,34.3599574 Z M63.7944744,29.4521023 L63.0637087,32.8402415 C63.5129705,32.6796591 63.7858406,32.4308807 63.9952618,31.7957102 L64.3021654,31.7957102 C64.0133327,32.7612926 63.4531358,33.0382102 62.9956417,33.1624006 L62.8870157,33.6860085 C62.6641417,34.7329261 62.0445118,34.93 61.5576024,34.93 C61.1097461,34.93 60.7332697,34.6965341 60.7332697,34.2220455 C60.7332697,33.6058665 61.381311,33.3019034 61.9354843,33.1322727 L62.0237303,32.738125 C61.7127106,33.0820597 61.3889409,33.1471875 61.1387598,33.1471875 C60.6974291,33.1471875 60.3481594,32.8848864 60.3481594,32.2710937 C60.3481594,32.1315909 60.3711496,31.9707102 60.4079941,31.7957102 L60.9085571,29.4521023 L61.9723287,29.4521023 L61.4411457,31.9352131 C61.425685,31.992983 61.4187579,32.0588068 61.4187579,32.1170739 C61.4187579,32.2855114 61.4703602,32.4385369 61.6409291,32.4385369 C61.9132972,32.4385369 62.1040453,32.1839915 62.2148799,31.8389631 L62.7323091,29.4521023 L63.7944744,29.4521023 Z"/><path d="M65.5556811 29.4521023L65.0253012 31.9352131C65.0106437 31.992983 65.0016083 32.0588068 65.0016083 32.1170739 65.0016083 32.2855114 65.0545157 32.4385369 65.2241811 32.4385369 65.5114075 32.4385369 65.7039626 32.1602273 65.8159016 31.7957102L66.3157618 29.4521023 67.3777264 29.4521023 66.8465433 31.9352131C66.8253602 32.0376278 66.81 32.1315909 66.81 32.1967187 66.81 32.3435795 66.8827854 32.4385369 67.0608839 32.4385369 67.7826142 32.4385369 68.3351811 30.8026847 68.3351811 29.9991761 68.3137972 30.0492898 68.158689 30.0720597 68.1008622 30.0720597 67.9227638 30.0720597 67.8340157 29.8605682 67.8340157 29.6976989 67.8340157 29.4724858 67.9823976 29.3048437 68.2924134 29.3048437 68.6477067 29.3048437 68.7555295 29.61875 68.7555295 29.9394176 68.7555295 31.109929 68.158689 33.1471875 66.6545906 33.1471875 66.1755118 33.1471875 65.8562598 32.9435511 65.7690177 32.5325994 65.4085039 33.0602841 65.0184744 33.1471875 64.7204055 33.1471875 64.2803799 33.1471875 63.9337205 32.8848864 63.9337205 32.2710937 63.9337205 32.1315909 63.9555059 31.9707102 63.991748 31.7957102L64.4927126 29.4521023 65.5556811 29.4521023M70.7185276 30.0863778C70.4300965 30.0863778 70.2021024 30.5314347 70.1583307 30.728608L69.6483307 33.1033381 68.5871693 33.1033381 69.6563622 28.1355256 70.7491476 27.9890625 70.3487776 29.8311364C70.6605 29.4808381 70.9849724 29.4210795 71.2110591 29.4210795 71.6854193 29.4210795 72.0316772 29.6635938 72.0316772 30.2464631 72.0316772 30.8390767 71.6767854 31.7230256 71.6767854 32.1315909 71.6767854 32.3140483 71.7524823 32.4385369 71.9728465 32.4385369 72.2968169 32.4385369 72.429939 32.1756392 72.5910709 31.7957102L72.9012874 31.7957102C72.4885689 32.9933665 71.9209429 33.1471875 71.5311142 33.1471875 70.8875906 33.1471875 70.6605 32.738125 70.6605 32.319517 70.6605 31.8253409 70.992502 30.926179 70.992502 30.4586506 70.992502 30.2177273 70.9030512 30.0863778 70.7185276 30.0863778"/><path d="M74.5468406,29.772571 C74.1707657,29.772571 73.8082441,30.5542045 73.6611673,31.2773722 C74.2285925,31.2400852 74.7303602,30.6784943 74.7303602,30.0720597 C74.7303602,29.889304 74.6867894,29.772571 74.5468406,29.772571 Z M74.1189626,32.5325994 C74.6997402,32.5325994 75.0548327,32.2125284 75.4246831,31.7957102 L75.6738602,31.7957102 C75.2547165,32.4671733 74.6264528,33.1471875 73.6464094,33.1471875 C72.951685,33.1471875 72.4963996,32.8116051 72.4963996,31.9859233 C72.4963996,31.1460227 72.9754783,29.3846875 74.4872067,29.3846875 C75.1438819,29.3846875 75.2983878,29.7211648 75.2983878,30.0863778 C75.2983878,30.926179 74.4872067,31.5765625 73.6007303,31.6291619 C73.5931004,31.7306818 73.5877795,31.8326989 73.5877795,31.9207955 C73.5877795,32.418054 73.7638701,32.5325994 74.1189626,32.5325994 Z"/><path d="M76.987311 29.4521023L76.8915354 29.9030256C77.1498484 29.6853693 77.4313524 29.4521023 77.7833327 29.4521023 78.1147323 29.4521023 78.2924291 29.7211648 78.2924291 29.9991761 78.2924291 30.2534233 78.1231654 30.5314347 77.7612461 30.5314347 77.3478248 30.5314347 77.5551378 30.0492898 77.3339705 30.0492898 77.1115984 30.0492898 76.978878 30.1592614 76.7966634 30.3280966L76.2084567 33.1033381 75.1438819 33.1033381 75.9252461 29.4521023 76.987311 29.4521023M80.1421831 29.772571C79.7747421 29.772571 79.4058957 30.5829403 79.2503858 31.2773722 79.8267461 31.2478409 80.3281122 30.6843608 80.3281122 30.0720597 80.3281122 29.889304 80.2830354 29.772571 80.1421831 29.772571zM79.6424232 32.454446C79.9234252 32.454446 80.2759075 32.2710937 80.5122343 32.0671591 80.3587323 32.8992045 79.8267461 33.1471875 79.2375354 33.1471875 78.549437 33.1471875 78.0939508 32.8116051 78.0939508 31.9859233 78.0939508 31.1460227 78.5724272 29.3846875 80.0837539 29.3846875 80.7420354 29.3846875 80.895939 29.7211648 80.895939 30.0863778 80.895939 30.9331392 80.0837539 31.5765625 79.2005906 31.6291619 79.1906516 31.7017472 79.1837244 31.7814915 79.1837244 31.8465199 79.1837244 32.3080824 79.3842106 32.454446 79.6424232 32.454446z"/></g></svg>