<svg xmlns="http://www.w3.org/2000/svg" width="130" height="35" viewBox="0 0 130 35"><g fill="none" fill-rule="evenodd"><g transform="translate(0 .462)"><path fill="#0F181C" d="M70.0089527,15.6577784 C68.8584966,15.6577784 67.9228041,14.7326195 67.9228041,13.5955987 C67.9228041,12.4585779 68.8584966,11.5334189 70.0089527,11.5334189 C71.1591892,11.5334189 72.0951014,12.4585779 72.0951014,13.5955987 C72.0951014,14.7326195 71.1591892,15.6577784 70.0089527,15.6577784"/><path fill="#0F181C" d="M108.802314,26.1091224 C108.807804,25.0708692 108.959324,24.0139478 109.26522,23.022582 C109.571115,22.0357748 110.032483,21.096072 110.669966,20.4083893 C110.988378,20.067587 111.341926,19.7910378 111.725338,19.6193342 C111.915507,19.5292495 112.113581,19.4682524 112.316926,19.4278771 C112.41772,19.4035651 112.522247,19.3961847 112.626334,19.3835945 L112.784443,19.3753458 C112.834071,19.3744775 112.870524,19.3744775 112.911807,19.3775165 C113.072551,19.3875018 113.211334,19.4254893 113.315861,19.4808426 C113.422584,19.5357617 113.496149,19.603488 113.55478,19.6927044 C113.672044,19.8633227 113.728041,20.1926202 113.637128,20.6002806 C113.551706,21.0046849 113.354071,21.450984 113.085726,21.8783979 C112.799814,22.3357676 112.473277,22.8163641 112.14652,23.265268 C111.487956,24.1726271 110.762635,25.0239817 109.965726,25.7854687 C109.598345,26.1364734 109.215372,26.46881 108.818564,26.7777028 C108.806267,26.5560727 108.799899,26.3327061 108.802314,26.1091224 Z M101.180186,25.9013849 C100.959054,27.4799293 100.233733,29.0170129 99.0874493,29.9519401 C98.5169426,30.4186439 97.8528885,30.7381733 97.1236149,30.8731918 C96.9420101,30.9087915 96.7555743,30.9302816 96.5673818,30.9461278 C96.3813851,30.9598033 96.1747466,30.9637106 96.0210304,30.955896 C95.6949324,30.9361425 95.4079223,30.8662455 95.1512162,30.7470732 C94.8956081,30.6255131 94.6626182,30.4501193 94.445,30.2139455 C94.2276014,29.979074 94.0323818,29.6795153 93.8619764,29.3437056 C93.5446622,28.7159347 93.3288007,27.9624793 93.1801351,27.1768974 C93.1860642,27.1669121 93.1924324,27.1567097 93.1983615,27.1469415 C93.6992568,26.2971064 94.1685304,25.4348982 94.614527,24.56379 C95.5372635,22.7518938 96.3723818,20.9063515 97.1288851,19.0304191 C98.4310811,19.4135504 99.5092905,20.2935585 100.247128,21.426672 C100.459476,21.7533647 100.650084,22.1043694 100.802483,22.4614521 C100.949831,22.8000837 101.056554,23.1669346 101.131216,23.5448562 C101.278345,24.30287 101.291959,25.1103762 101.180186,25.9013849 Z M92.9559291,21.5985926 C93.1977027,17.9140201 93.9080912,14.2044844 94.8615709,10.5937162 C95.3354561,8.78854916 95.8886149,6.99401864 96.6099831,5.31952869 C96.7902703,4.90231716 96.9839527,4.495308 97.1963007,4.11174257 C97.4075507,3.73013078 97.6332939,3.36197743 97.8741892,3.06958205 C97.9923311,2.92392704 98.1148649,2.79650604 98.2132432,2.71792614 C98.2670439,2.66973625 98.311402,2.6465096 98.3285304,2.63674138 L98.3493919,2.64043159 C98.3537838,2.64021452 98.3897973,2.66018511 98.4455743,2.74853323 C98.5586655,2.92674897 98.6627534,3.29902668 98.7038176,3.69257741 C98.7488345,4.09046956 98.7530068,4.52504681 98.7341216,4.96548499 C98.6961318,5.85026863 98.5613007,6.76305451 98.3911149,7.67236724 C98.0463514,9.49489999 97.5404054,11.3137425 96.9624324,13.108056 C96.3813851,14.9030206 95.7300676,16.6812708 95.0108953,18.4306504 C94.3613345,20.0124508 93.6595101,21.5727611 92.8968581,23.0972546 C92.9049831,22.5995096 92.924527,22.0998109 92.9559291,21.5985926 Z M84.8445439,27.4006982 C84.5259122,28.2635576 84.0579561,29.0615126 83.4360642,29.6662739 C82.8187838,30.2764621 82.0598649,30.6823859 81.2207939,30.8569114 C81.0106419,30.9005428 80.7954392,30.9300645 80.5760642,30.946562 C80.4664865,30.9550277 80.3555912,30.958718 80.2442568,30.9606716 C80.1412669,30.9598033 80.048598,30.9567643 79.9552703,30.9478644 C79.5839358,30.9131329 79.2692568,30.8115434 78.9864189,30.6391886 C78.4229392,30.3040302 77.9444426,29.5929038 77.6266892,28.7141981 C77.4720946,28.2939476 77.3502196,27.8437412 77.253598,27.3763861 C77.2652365,27.3555473 77.2777534,27.3353596 77.2893919,27.3145207 C77.8555068,26.3133868 78.3770439,25.297709 78.8676182,24.2716117 C79.6959291,22.5465441 80.4555068,20.7984669 81.153598,19.0282484 C82.7028378,19.4810597 83.9354223,20.6389193 84.6596453,22.0841817 C84.7110304,22.1864224 84.758902,22.2903997 84.8050169,22.3954623 C84.8491554,22.4961835 84.8891216,22.5938657 84.9273311,22.6963235 C85.0024324,22.8999366 85.0652365,23.1113643 85.1157432,23.3280017 C85.2152196,23.7617107 85.270777,24.2151731 85.2832939,24.6742795 C85.2991047,25.5916238 85.1642736,26.5350168 84.8445439,27.4006982 Z M76.936723,22.658336 C76.9707601,21.5936 77.0550845,20.5214836 77.179375,19.4500184 C77.2968581,18.377902 77.4514527,17.3053515 77.6387669,16.2369253 C78.0180068,14.1005071 78.5090203,11.9773303 79.0830405,9.88541171 C79.3693919,8.83956097 79.6908784,7.80478088 80.0562838,6.79539817 C80.4249831,5.79122517 80.8303547,4.79464967 81.3358615,3.91898303 C81.5822466,3.48787893 81.868598,3.07023327 82.1371622,2.81343762 C82.2291723,2.71814321 82.3253547,2.65736318 82.3565372,2.63717552 L82.3800338,2.64021452 C82.3831081,2.63674138 82.4331757,2.66973625 82.5003716,2.79021097 C82.5642736,2.91111982 82.6288345,3.09128921 82.6716554,3.29989497 C82.7605912,3.71775771 82.7869426,4.21745642 82.7775,4.72323313 C82.7599324,5.74260114 82.6029223,6.8088566 82.4030912,7.86556092 C82.1984291,8.92421888 81.9472128,9.98504755 81.649223,11.0358909 C81.0589527,13.1401826 80.3375845,15.219728 79.5233277,17.2606348 C78.7540878,19.2016886 77.8855912,21.1049719 76.9316723,22.9531191 C76.9338682,22.8547857 76.9338682,22.7566694 76.936723,22.658336 Z M49.4355743,30.6348472 C48.9096453,30.8953331 48.3716385,31.0950389 47.8342905,31.2150795 C47.6996791,31.2513304 47.5659459,31.2650059 47.4315541,31.2927911 C47.2982601,31.3049471 47.1634291,31.3314298 47.0310135,31.3342517 L46.8296453,31.3461907 L46.6028041,31.3496638 C46.4523818,31.3494468 46.3023986,31.347276 46.1537331,31.3418492 C45.5612669,31.3181885 44.9837331,31.2341818 44.4887669,31.0776732 C44.2436993,30.9995274 44.0194932,30.901194 43.8523818,30.7946119 C43.6819764,30.6910687 43.5611993,30.5536624 43.5379223,30.5145896 C43.5493412,30.4713923 43.6426689,30.3439713 43.8078041,30.227838 C44.1409291,29.9868886 44.6773986,29.7915242 45.2393412,29.6910201 C45.80875,29.5848721 46.4097804,29.5442797 47.0386993,29.554265 C47.6768412,29.5594747 48.3044426,29.6063622 48.9094257,29.7003542 C49.4360135,29.7884852 49.9419595,29.9130843 50.4110135,30.0908659 C50.0910642,30.2907888 49.7662838,30.4750825 49.4355743,30.6348472 Z M129.813345,29.6552033 C129.613514,29.4096954 129.250304,29.3708396 129.001943,29.5683747 L128.958902,29.602672 C128.419358,30.0318224 127.92,30.3329007 127.391436,30.5304358 C126.872534,30.737522 126.331892,30.8473603 125.773024,30.9124817 C125.491723,30.9396157 125.207568,30.9580667 124.916824,30.9608887 C124.656166,30.9502522 124.429983,30.9120476 124.221149,30.8490968 C123.816655,30.7073491 123.488801,30.5035189 123.182247,30.1570727 C122.5575,29.472212 122.080101,28.3034987 121.786723,27.0618495 C121.487196,25.8102149 121.361807,24.4582933 121.317449,23.0981229 C121.293074,22.1173937 121.316351,21.1290669 121.375203,20.1381352 C121.708547,20.1487718 122.042551,20.1455157 122.375676,20.12815 C123.081672,20.0862551 123.786571,19.9844486 124.479172,19.8064499 C125.170236,19.6271488 125.85603,19.3838116 126.489561,19.0160924 C127.119358,18.6514122 127.711824,18.1736377 128.122466,17.5604106 C128.225895,17.4054215 128.248953,17.2015913 128.164628,17.0203365 C128.034848,16.7405313 127.700186,16.6178859 127.417128,16.7461752 L127.375405,16.7650604 C126.843986,17.0062269 126.317179,17.1729378 125.768851,17.2873346 C125.221841,17.3982581 124.664949,17.473799 124.097517,17.497894 C123.277551,17.5354473 122.448801,17.4835672 121.629274,17.3850168 C121.732703,16.5327938 121.855676,15.6816563 121.997534,14.8346431 C122.228767,13.459929 122.517973,12.0930294 122.869983,10.7471858 C123.212331,9.39917143 123.628682,8.07069354 124.137264,6.8058176 L124.145389,6.78606409 C124.321503,6.34388934 124.127821,5.83442241 123.688851,5.62060693 C123.226166,5.39528666 122.666419,5.58348769 122.438699,6.04064038 C121.103564,8.72017162 120.275693,11.5273409 119.617787,14.3740173 C119.289932,15.7980066 119.044865,17.2404471 118.853598,18.6948265 C118.742922,19.5555152 118.658159,20.4218478 118.599527,21.2938242 C118.172416,22.9767799 117.624088,24.6161043 116.890642,26.1353881 C116.413243,27.1215441 115.855473,28.0558201 115.19603,28.8531239 C114.54098,29.6502106 113.775473,30.3044643 112.966926,30.6580739 C112.562432,30.8310799 112.15223,30.9300645 111.739831,30.955896 C111.304814,30.9789056 110.979595,30.9331035 110.67853,30.8082874 C110.38625,30.6813005 110.124274,30.473563 109.881622,30.1746555 C109.639189,29.8744456 109.429476,29.4884923 109.264561,29.0532639 C109.261267,29.0447981 109.258851,29.0356811 109.255557,29.0272153 C110.036875,28.5036387 110.756486,27.9064749 111.421639,27.2685016 C112.318243,26.4049909 113.117787,25.4648541 113.845743,24.4856443 C114.211368,23.990287 114.548007,23.5051321 114.886841,22.9733068 C115.239291,22.4117427 115.550017,21.7861425 115.723936,21.0513553 C115.808041,20.6836361 115.853936,20.2840073 115.814628,19.8570276 C115.779274,19.4339551 115.649713,18.9789732 115.398277,18.5713128 C115.149696,18.1627841 114.778361,17.8169891 114.366622,17.5942737 C113.954662,17.3667827 113.510422,17.2519519 113.08375,17.2163522 C112.978345,17.2070181 112.86701,17.2041962 112.769071,17.2039791 L112.485355,17.2113595 C112.296284,17.2256862 112.105676,17.2397959 111.917703,17.276481 C111.541098,17.3405171 111.169324,17.4477504 110.822365,17.5988322 C110.474527,17.7483945 110.147551,17.9326883 109.84451,18.1402087 C109.544764,18.3512022 109.27027,18.5852054 109.018395,18.8335352 C108.019679,19.8374911 107.375828,21.0244384 106.92522,22.2387367 C106.47549,23.4575934 106.21527,24.7220352 106.131824,26.013828 C106.090101,26.7705394 106.108547,27.5387557 106.21549,28.3143523 C105.300659,28.6883666 104.336419,28.9102137 103.358345,28.9805449 C103.743953,28.1213757 103.998024,27.2174898 104.122973,26.2964552 C104.273176,25.1900415 104.236723,24.0532378 103.97826,22.9368388 C103.845186,22.3796161 103.660726,21.8269519 103.404459,21.2942583 C103.155,20.7795817 102.86272,20.295078 102.515541,19.8394448 C101.826453,18.9307833 100.930068,18.1536671 99.8826014,17.6353003 C99.2633446,17.3279269 98.587652,17.1191041 97.9011993,17.0255463 C98.3006419,15.9427934 98.6776858,14.8515747 99.0270608,13.7499365 C99.6072297,11.8883309 100.119764,10.0021962 100.489341,8.05745217 C100.670726,7.08323505 100.812804,6.09512534 100.870997,5.06555497 C100.896909,4.54957589 100.899983,4.02296031 100.843328,3.46790835 C100.815,3.19005676 100.771959,2.90460767 100.69598,2.60548307 C100.619561,2.30744383 100.511959,1.99203887 100.322449,1.66426083 C100.134916,1.34060714 99.8382432,0.989168299 99.4170608,0.755165167 C99.2097635,0.638814815 98.9816047,0.557195911 98.759375,0.512696243 C98.6480405,0.489686659 98.5393412,0.476662366 98.4321791,0.468630718 L98.2747297,0.462986858 C98.206875,0.463638072 98.1324324,0.46754536 98.061723,0.473406292 C97.4984628,0.542000903 97.1295439,0.780562538 96.8495608,0.987214656 C96.5649662,1.20276671 96.3517399,1.42461383 96.1587162,1.64559267 C95.4077027,2.52863975 94.9296453,3.42232332 94.4570777,4.32251905 C93.5455405,6.12551536 92.8483277,7.97084062 92.2367568,9.84243154 C91.6350676,11.7164102 91.1712838,13.6253375 90.7988514,15.5546694 C90.4297128,17.4853038 90.1613682,19.4398161 90.0421284,21.4245013 C89.9268412,23.4094035 89.9332095,25.4244787 90.2992736,27.4903487 C90.3067399,27.5309411 90.3155236,27.5717505 90.3232095,27.6123429 C90.2766554,27.6820229 90.2314189,27.7532224 90.1844257,27.822034 L89.9881081,28.1066148 C89.9323311,28.1771631 89.8870946,28.2487967 89.8282432,28.3113133 C89.3914696,28.829246 88.7557432,29.1546363 87.9996791,29.2638233 C87.7524155,29.3015937 87.4946115,29.3141839 87.2368074,29.3068035 C87.3837162,29.0094154 87.5134966,28.7052982 87.6263682,28.3974907 C88.073902,27.1708194 88.294375,25.8749022 88.2311318,24.5687827 C88.2028041,23.9160485 88.1066216,23.2602754 87.9267736,22.616007 C87.8378378,22.2936558 87.7291385,21.9739094 87.5986993,21.6598068 C87.5332601,21.5035153 87.4618919,21.3457043 87.3867905,21.1944054 C87.3121284,21.0478821 87.2343919,20.9030954 87.1522635,20.7604794 C86.5002872,19.6189001 85.5709628,18.6017028 84.4075507,17.9079421 C83.6534628,17.4501382 82.7922128,17.1405942 81.9129561,17.0229414 C82.5622973,15.2340547 83.1494932,13.4221585 83.6661993,11.5824771 C83.9622128,10.486917 84.2424155,9.38354228 84.4639865,8.25672386 C84.6831419,7.12838593 84.8601351,5.98550421 84.9080068,4.77902052 C84.9264527,4.17382504 84.9161318,3.55365161 84.7874493,2.87855909 C84.7215709,2.54166404 84.6212162,2.18436426 84.4319257,1.80796219 C84.2415372,1.4378552 83.9259797,1.01478274 83.4296959,0.744962804 C83.1866047,0.611897942 82.9184797,0.528542466 82.6641892,0.491423231 C82.5335304,0.470367291 82.4178041,0.465808788 82.2884628,0.462986858 C82.1200338,0.464940502 81.9573142,0.486213514 81.8123818,0.522898606 C81.2300169,0.680709624 80.8988682,0.960948998 80.6147128,1.20754228 C80.3356081,1.46238428 80.1168919,1.72026529 79.918598,1.97771215 C79.7194257,2.23472486 79.5419932,2.49173758 79.3768581,2.75070394 C78.7272973,3.78678646 78.2132264,4.83068355 77.7494426,5.89259758 C77.2882939,6.95342626 76.8811655,8.02641094 76.5107095,9.10894677 C75.7730912,11.2751038 75.2186149,13.4894507 74.8000676,15.7335364 C74.5903547,16.8555792 74.4111655,17.9852196 74.2756757,19.1244111 C74.1452365,20.2640367 74.0558615,21.4132135 74.0207264,22.5728098 C73.9875676,23.7328401 74.009527,24.9043753 74.131402,26.0915396 C74.1761993,26.5154804 74.2326351,26.942243 74.3064189,27.3709594 C73.9888851,27.827895 73.6605912,28.2722404 73.3197804,28.6994372 C72.9919257,29.1064464 72.6519932,29.4941362 72.3010811,29.842319 C71.9523649,30.1889822 71.5854223,30.5004799 71.2426351,30.7088686 C71.0728885,30.8121947 70.9103885,30.8888209 70.7823649,30.9283279 C70.7197804,30.9461278 70.6651014,30.9578497 70.6244764,30.9615399 C70.6058108,30.9606716 70.5862669,30.965013 70.5744088,30.9615399 C70.5654054,30.9654472 70.5673818,30.949818 70.5489358,30.9726105 L70.4889865,30.9715252 C70.1580574,30.9700057 69.9602027,30.9070549 69.7700338,30.7657414 C69.5778885,30.625079 69.3765203,30.3426689 69.2221453,29.9634449 C69.0655743,29.5868258 68.9575338,29.1281536 68.8870439,28.6488596 C68.7473818,27.6837595 68.7471622,26.6307454 68.8141385,25.5755605 C68.8815541,24.5177709 69.0181419,23.4476081 69.1962331,22.3804844 C69.3106419,21.7003992 69.4450338,21.0118482 69.5936993,20.3350191 C69.6920777,19.9503684 69.784527,19.5646322 69.8662162,19.1771595 L69.883125,19.0970601 C70.0021453,18.5300692 69.6472804,17.9667685 69.0736993,17.825672 C68.4858446,17.6813194 67.8911824,18.0353631 67.745152,18.6164637 L67.7449324,18.6171149 C67.7398818,18.6340465 67.7354899,18.650761 67.7304392,18.6676926 C66.9890878,21.1208182 65.9602872,23.4821225 64.61,25.6044311 C63.9343074,26.665911 63.1692399,27.6618352 62.3224831,28.5375019 C61.8975676,28.9735986 61.449375,29.3762663 60.9814189,29.7259686 C60.5167568,30.0787099 60.0303547,30.3784857 59.5415372,30.5959914 C59.0533784,30.81328 58.5645608,30.940484 58.1174662,30.9591521 C58.019527,30.9624082 57.8680068,30.9591521 57.7268074,30.9569814 C57.5825338,30.9593692 57.4505574,30.9417864 57.3124324,30.9357084 C57.044527,30.9098769 56.7865034,30.8712381 56.5491216,30.8113264 C56.0633784,30.703876 55.6608615,30.5041701 55.1843412,30.1978822 C55.1215372,30.1568556 55.0571959,30.1127901 54.9917568,30.066771 C55.8139189,29.3361081 56.5770101,28.5594261 57.3016723,27.7595174 C58.2347297,26.7275593 59.1069595,25.6565282 59.9332939,24.5581462 C60.7519426,23.4543373 61.5277703,22.3262165 62.2667061,21.1761714 C62.6365034,20.6011489 62.9902703,20.0167922 63.3387669,19.4285283 C63.6888007,18.8348376 64.0197297,18.2559078 64.3539527,17.6190199 L64.3539527,17.6188028 C64.5408277,17.2845126 64.5915541,16.8714255 64.4549662,16.4819991 C64.1997973,15.753507 63.3956419,15.3675538 62.658902,15.6197909 L62.5194595,15.6675466 L62.3099662,15.7393973 L62.0613851,15.8188455 C61.8925169,15.8709427 61.7207939,15.9258618 61.5453378,15.9744858 C61.196402,16.0745558 60.8391216,16.1650746 60.4778885,16.2458252 C59.7573986,16.4129703 59.0235135,16.5492913 58.2845777,16.6673782 C56.8031926,16.8879229 55.2991892,17.0183829 53.7870608,17.0539826 L52.6412162,17.0767751 L51.5129392,17.0830702 C51.3262838,17.0839385 51.1420439,17.0802483 50.9575845,17.0756898 C50.773125,17.0759069 50.5897635,17.0722166 50.4066216,17.067224 C50.0412162,17.0528973 49.6775676,17.0342291 49.311723,17.0008001 C48.5828885,16.9332909 47.8303378,16.8099942 47.0971115,16.651532 C46.7281926,16.5755569 46.3614696,16.4880771 45.9986993,16.390829 C45.817973,16.3409026 45.6346115,16.2942322 45.4569595,16.2386619 L44.9488176,16.0736875 L44.8756926,16.0498096 C44.6716892,15.9836028 44.4382601,16.0398243 44.2884966,16.2100084 C44.0886655,16.4370653 44.1128209,16.7811237 44.3425169,16.9784417 C44.5333446,17.1425478 44.6888176,17.2588982 44.8677872,17.3841485 C45.0417061,17.5061427 45.216723,17.6237955 45.3961318,17.7331995 C45.7547297,17.9528759 46.1247466,18.1484574 46.5011318,18.3299292 C46.8790541,18.5064084 47.2611486,18.6774608 47.6518074,18.8209451 C48.0404899,18.9705074 48.4377365,19.1161624 48.8459628,19.2370712 C49.2535304,19.3614532 49.669223,19.4702061 50.0871115,19.5542128 C50.2957264,19.5961076 50.5047804,19.6364829 50.7133953,19.6720826 C50.9224493,19.7026897 51.1315034,19.7315602 51.3388007,19.7556552 C51.7542736,19.8094889 52.1677703,19.8387936 52.5766554,19.8598495 C52.9877365,19.8841615 53.3895946,19.8997907 53.7993581,19.900659 C55.4447804,19.9204125 57.0985473,19.8192571 58.7393581,19.5720126 C59.1526351,19.5090619 59.5645946,19.4359088 59.9756757,19.3525533 C59.9172635,19.4430721 59.8599493,19.5342422 59.8013176,19.624544 C59.093125,20.722926 58.3504561,21.7980814 57.5730912,22.8417614 C56.0679899,24.8854901 54.4166385,26.8248073 52.5748986,28.4539293 C52.2057601,28.2700697 51.8230068,28.110088 51.4371791,27.9835353 C50.6942905,27.7493151 49.9525,27.5982333 49.2219088,27.5137924 C48.4921959,27.4250102 47.7717061,27.3824641 47.0619764,27.3824641 C46.3443412,27.3659667 45.5926689,27.4046054 44.8359459,27.5400581 C44.0794426,27.6859302 43.2952703,27.8893262 42.5139527,28.4079102 C42.1311993,28.6733887 41.7280236,29.0322079 41.4609966,29.6002842 C41.3325338,29.8831284 41.2466723,30.2167674 41.2497466,30.5577868 C41.251723,30.8979379 41.3342905,31.2341818 41.4671453,31.5129016 C41.737027,32.0777218 42.137348,32.4413167 42.5198818,32.712439 C42.9085642,32.9837785 43.3025169,33.1656844 43.6918581,33.310037 C44.4711993,33.5924471 45.2369257,33.7205193 45.9877196,33.7869432 C46.1752534,33.8030065 46.3621284,33.8145113 46.5485642,33.8231942 L46.8270101,33.8320941 L47.1309291,33.8301404 C47.3358108,33.8320941 47.5354223,33.8082162 47.7378885,33.7958431 C47.9357432,33.7684921 48.1386486,33.7515605 48.3325507,33.7118365 C49.1184797,33.5750814 49.8622466,33.3330466 50.5570439,33.0297976 C51.2544764,32.7287194 51.9046959,32.3642563 52.518902,31.9681007 C52.6379223,31.8919086 52.7540878,31.8133287 52.8702534,31.7343146 C53.0858953,31.9259888 53.3169088,32.1282995 53.5791047,32.3373394 C54.1801351,32.8268357 54.9847297,33.2744373 55.8079899,33.4988893 C56.2192905,33.62262 56.6299324,33.6829659 57.0313514,33.7300705 C57.2294257,33.7450484 57.4325507,33.7697946 57.6257939,33.7717482 C57.8212331,33.7778262 58.0065709,33.7880286 58.2454899,33.777175 C59.1473649,33.7320241 59.9772128,33.4854308 60.7141723,33.1528772 C62.1916047,32.4771335 63.3508446,31.4892408 64.3493412,30.4258073 C65.0540203,29.6740885 65.6730574,28.8698384 66.2295101,28.03433 C66.2391723,28.3397497 66.2587162,28.6482084 66.2898986,28.9607914 C66.3566554,29.584438 66.4668919,30.2265356 66.7058108,30.8927282 C66.9438514,31.5502379 67.3189189,32.2676594 67.9928547,32.84876 C68.3253209,33.1355115 68.7258615,33.3699488 69.1428716,33.5216818 C69.5605405,33.6736319 69.9852365,33.7441801 70.3851182,33.7637166 L70.5359797,33.7708799 C70.548277,33.7613288 70.5605743,33.7860749 70.5779223,33.7826018 L70.6257939,33.7804311 L70.7217568,33.7758726 C70.8504392,33.7697946 70.9701182,33.7504752 71.0906757,33.73159 C71.3280574,33.6888269 71.5450169,33.6239225 71.7474831,33.5492499 C72.1480236,33.3964315 72.482027,33.2030207 72.7815541,33.0000588 C73.376875,32.5913131 73.8404392,32.1398043 74.2653547,31.6800467 C74.6250507,31.2877984 74.9496115,30.885999 75.2550676,30.4787728 C75.4230574,30.825219 75.6163007,31.1692774 75.8528041,31.5040017 C76.2627872,32.0857535 76.8060642,32.645581 77.4868074,33.0541097 C78.163598,33.4667627 78.9534797,33.7005487 79.7027365,33.7608946 C79.8896115,33.7776091 80.0784628,33.7823847 80.2567736,33.7828189 C80.4269595,33.7819506 80.5973649,33.7776091 80.7686486,33.7665385 C81.110777,33.7443972 81.4546622,33.7011999 81.7959122,33.6336907 C82.4792905,33.5008429 83.1503716,33.2638008 83.7711655,32.9388447 C84.3923986,32.6132373 84.9613682,32.2003672 85.4607264,31.7297561 C85.603902,31.5940864 85.7398311,31.4527728 85.8715878,31.3088544 C86.1122635,31.365293 86.3498649,31.4084902 86.5876858,31.4364924 C87.1636824,31.5026993 87.7442905,31.4979237 88.3286318,31.4100097 C88.9116554,31.3240494 89.4997297,31.1497409 90.0511318,30.8645089 C90.4198311,30.6756567 90.7656926,30.4305829 91.0764189,30.1490411 C91.1440541,30.3044643 91.2149831,30.4596705 91.2929392,30.6148766 C91.5588682,31.1332435 91.8878209,31.650525 92.325473,32.1228727 C92.7600507,32.594135 93.3075,33.0163392 93.9289527,33.3048273 C94.5504054,33.5939666 95.225,33.7411411 95.865777,33.7747872 C96.1958277,33.7882456 96.4744932,33.7828189 96.7720439,33.7634995 C97.0665203,33.7411411 97.3623142,33.707278 97.6565709,33.6519247 C98.8344764,33.4387604 99.9796622,32.9206106 100.911841,32.1769235 C101.314358,31.8606503 101.675811,31.5061724 102.001689,31.1269484 C102.288041,31.1391044 102.574831,31.1440971 102.8625,31.1382361 C103.513598,31.1200021 104.164257,31.0451124 104.803277,30.9183427 C105.463159,30.7896192 106.105473,30.5953402 106.726047,30.3524371 C106.93576,30.8916429 107.22299,31.4262901 107.610355,31.9305473 C108.09478,32.5468134 108.769155,33.1077263 109.570456,33.4287751 C110.361655,33.7519947 111.242669,33.8357843 111.980726,33.7515605 C112.744037,33.6736319 113.485828,33.4522189 114.149443,33.130953 C115.478868,32.4740945 116.477145,31.4831628 117.266588,30.4470803 C117.905828,29.6033232 118.417264,28.7111591 118.851841,27.8003269 C118.988868,28.5255629 119.170693,29.2642574 119.472855,29.9983934 C119.786655,30.7822388 120.241436,31.571511 120.915152,32.2776447 C121.598091,32.9681493 122.555743,33.5327524 123.562804,33.7053243 C124.059527,33.7967114 124.557128,33.8079992 125.017399,33.7784774 C125.448024,33.7572044 125.882162,33.6901293 126.309493,33.585935 C127.162179,33.367561 127.999493,32.9618542 128.664645,32.3486271 C128.994037,32.0425562 129.285439,31.6967612 129.500861,31.3116763 C129.716723,30.9281109 129.867365,30.5178456 129.933682,30.1017195 C129.957618,29.9491182 129.919189,29.7852292 129.813345,29.6552033 Z"/><polyline fill="#1BAAA0" points="23.823 6.423 5.015 33.691 0 26.254 20.062 6.423 23.823 6.423"/></g><polyline fill="#1BAAA0" points="30.909 24.237 34.034 19.708 15.046 24.237 5.015 34.153 26.331 34.153 36.362 24.237 30.909 24.237"/><polyline fill="#1BAAA0" points="13.757 6.059 24.38 6.059 18.808 .688 11.04 3.373 13.757 6.059"/><polyline fill="#1BAAA0" points="10.82 4.324 7.01 6.059 12.574 6.059 10.82 4.324"/></g></svg>