<svg xmlns="http://www.w3.org/2000/svg" width="117" height="35" viewBox="0 0 117 35"><g fill="none" fill-rule="evenodd"><path fill="#142C65" d="M62.76,25.5 L59.88,25.5 L55.2,11.3 L57.98,11.3 L61.38,22.24 L64.74,11.3 L67.44,11.3 L62.76,25.5 Z M67.64,20.44 C67.64,17.32 69.78,15.1 72.76,15.1 C75.74,15.1 77.88,17.32 77.88,20.44 C77.88,23.6 75.74,25.8 72.76,25.8 C69.78,25.8 67.64,23.6 67.64,20.44 Z M70.2,20.44 C70.2,22.34 71.24,23.66 72.76,23.66 C74.28,23.66 75.32,22.34 75.32,20.44 C75.32,18.56 74.28,17.24 72.76,17.24 C71.24,17.24 70.2,18.56 70.2,20.44 Z M79.78,25.5 L79.78,11.3 L82.3,11.3 L82.3,25.5 L79.78,25.5 Z M88.12,23.8 C89.2,23.8 90.58,22.9 90.58,21.4 L90.58,20.88 C87.32,20.98 86.76,22.08 86.76,22.7 C86.76,23.46 87.38,23.8 88.12,23.8 Z M90.7,25.5 L90.7,24.42 C90.02,25.14 88.78,25.8 87.42,25.8 C85.8,25.8 84.2,24.84 84.2,22.9 C84.2,20.32 87.04,19.12 90.58,19.02 L90.58,18.82 C90.58,17.8 89.78,17.26 88.76,17.26 C87.96,17.26 87.08,17.58 86.24,18.52 L84.56,17.12 C85.46,15.96 86.98,15.1 88.86,15.1 C91.4,15.1 93.06,16.24 93.06,19.28 L93.06,25.5 L90.7,25.5 Z M95.22,12.22 C95.22,11.4 95.88,10.72 96.72,10.72 C97.54,10.72 98.22,11.4 98.22,12.22 C98.22,13.04 97.54,13.74 96.72,13.74 C95.88,13.74 95.22,13.04 95.22,12.22 Z M95.46,25.5 L95.46,15.4 L97.98,15.4 L97.98,25.5 L95.46,25.5 Z M103.1,25.5 L100.58,25.5 L100.58,15.4 L102.98,15.4 L102.98,16.82 C103.52,15.74 104.68,15.1 106.2,15.1 L106.1,17.58 C104.02,17.62 103.1,18.44 103.1,20.06 L103.1,25.5 Z M112,17.2 C110.64,17.2 109.78,18.06 109.54,19.54 L114.24,19.54 C114.04,18.02 113.3,17.2 112,17.2 Z M116.42,23.38 C115.44,24.9 113.98,25.8 112.08,25.8 C109.1,25.8 107,23.6 107,20.44 C107,17.32 109.1,15.1 112.04,15.1 C114.98,15.1 116.78,17.32 116.78,20.44 L116.78,21.26 L109.56,21.26 C109.82,22.7 110.8,23.66 112.08,23.66 C112.96,23.66 113.78,23.22 114.46,22.22 L116.42,23.38 Z"/><path fill="#59C9A5" fill-rule="nonzero" d="M.795454545 12.3863636L.795454545 19.2045455C.795454545 27.6770956 7.6638135 34.5454545 16.1363636 34.5454545L16.1363636 27.7272727C16.1363636 19.2547226 9.26800468 12.3863636.795454545 12.3863636zM19.5454545 22.6136364L19.5454545 34.5454545C31.7835825 34.5454545 41.7045455 24.6244916 41.7045455 12.3863636L41.7045455.454545455C29.4664175.454545455 19.5454545 10.3755084 19.5454545 22.6136364z"/></g></svg>